<?xml version="1.0" encoding="UTF-8" standalone="no"?>
<svg width="210.058mm" height="296.925mm" viewBox="0 0 2977.2 4208.39"
 xmlns="http://www.w3.org/2000/svg" xmlns:xlink="http://www.w3.org/1999/xlink" version="1.2" baseProfile="full">
<title>la-fiesta-chick-corea-wip (2)</title>
<desc>Generated by MuseScore Studio 4.6.2</desc>
<polyline class="StaffLines" fill="none" stroke="#000000" stroke-width="2.73" stroke-linejoin="bevel" points="212.598,454.393 2764.6,454.393" />
<polyline class="StaffLines" fill="none" stroke="#000000" stroke-width="2.73" stroke-linejoin="bevel" points="212.598,479.233 2764.6,479.233" />
<polyline class="StaffLines" fill="none" stroke="#000000" stroke-width="2.73" stroke-linejoin="bevel" points="212.598,504.073 2764.6,504.073" />
<polyline class="StaffLines" fill="none" stroke="#000000" stroke-width="2.73" stroke-linejoin="bevel" points="212.598,528.913 2764.6,528.913" />
<polyline class="StaffLines" fill="none" stroke="#000000" stroke-width="2.73" stroke-linejoin="bevel" points="212.598,553.753 2764.6,553.753" />
<polyline class="StaffLines" fill="none" stroke="#000000" stroke-width="2.73" stroke-linejoin="bevel" points="212.598,715.213 2764.6,715.213" />
<polyline class="StaffLines" fill="none" stroke="#000000" stroke-width="2.73" stroke-linejoin="bevel" points="212.598,740.053 2764.6,740.053" />
<polyline class="StaffLines" fill="none" stroke="#000000" stroke-width="2.73" stroke-linejoin="bevel" points="212.598,764.893 2764.6,764.893" />
<polyline class="StaffLines" fill="none" stroke="#000000" stroke-width="2.73" stroke-linejoin="bevel" points="212.598,789.733 2764.6,789.733" />
<polyline class="StaffLines" fill="none" stroke="#000000" stroke-width="2.73" stroke-linejoin="bevel" points="212.598,814.573 2764.6,814.573" />
<polyline class="StaffLines" fill="none" stroke="#000000" stroke-width="2.73" stroke-linejoin="bevel" points="212.598,1404.52 2764.6,1404.52" />
<polyline class="StaffLines" fill="none" stroke="#000000" stroke-width="2.73" stroke-linejoin="bevel" points="212.598,1429.36 2764.6,1429.36" />
<polyline class="StaffLines" fill="none" stroke="#000000" stroke-width="2.73" stroke-linejoin="bevel" points="212.598,1454.2 2764.6,1454.2" />
<polyline class="StaffLines" fill="none" stroke="#000000" stroke-width="2.73" stroke-linejoin="bevel" points="212.598,1479.04 2764.6,1479.04" />
<polyline class="StaffLines" fill="none" stroke="#000000" stroke-width="2.73" stroke-linejoin="bevel" points="212.598,1503.88 2764.6,1503.88" />
<polyline class="StaffLines" fill="none" stroke="#000000" stroke-width="2.73" stroke-linejoin="bevel" points="212.598,1665.34 2764.6,1665.34" />
<polyline class="StaffLines" fill="none" stroke="#000000" stroke-width="2.73" stroke-linejoin="bevel" points="212.598,1690.18 2764.6,1690.18" />
<polyline class="StaffLines" fill="none" stroke="#000000" stroke-width="2.73" stroke-linejoin="bevel" points="212.598,1715.02 2764.6,1715.02" />
<polyline class="StaffLines" fill="none" stroke="#000000" stroke-width="2.73" stroke-linejoin="bevel" points="212.598,1739.86 2764.6,1739.86" />
<polyline class="StaffLines" fill="none" stroke="#000000" stroke-width="2.73" stroke-linejoin="bevel" points="212.598,1764.7 2764.6,1764.7" />
<path class="MeasureNumber" d="M239.208,1319.44 L236.505,1319.44 L213.192,1343.55 L213.192,1345.64 L227.301,1345.64 L226.505,1348.69 C225.505,1352.5 225.505,1352.5 221.145,1352.5 L220.255,1352.5 L219.942,1354.84 L235.505,1354.84 L235.755,1352.5 L234.848,1352.5 C231.551,1352.5 230.848,1352.25 230.848,1351.14 C230.848,1350.75 230.942,1350.25 231.348,1348.69 L232.192,1345.64 L237.895,1345.64 L238.645,1342.94 L232.895,1342.94 L239.208,1319.44 M228.051,1342.94 L216.848,1342.94 L232.301,1327.05 L228.051,1342.94 M246.989,1335.69 C245.442,1336.64 244.989,1337.25 244.989,1338.25 C244.989,1339.19 245.801,1339.89 246.801,1339.89 C248.098,1339.89 248.848,1338.94 248.989,1337.09 C250.551,1335.84 252.192,1335.3 254.192,1335.3 C257.895,1335.3 259.942,1337.59 259.942,1341.75 C259.942,1348.25 255.739,1353.55 250.598,1353.55 C247.645,1353.55 245.239,1352.14 245.239,1350.5 C245.239,1350.19 245.301,1350.09 245.551,1349.94 C247.145,1349.19 248.442,1348.64 248.442,1346.55 C248.442,1344.94 247.192,1343.75 245.442,1343.75 C243.239,1343.75 241.598,1345.59 241.598,1348 C241.598,1352.39 245.395,1355.59 250.739,1355.59 C258.848,1355.59 265.395,1349.14 265.395,1341.14 C265.395,1336.09 261.551,1332.55 256.098,1332.55 C253.942,1332.55 252.192,1333 249.801,1334.19 L252.598,1324.73 C255.239,1325.3 257.348,1325.55 259.145,1325.55 C262.442,1325.55 265.395,1324.48 267.051,1322.73 C267.895,1321.73 268.395,1320.89 268.395,1320.23 C268.395,1319.94 268.255,1319.64 268.051,1319.64 C267.895,1319.64 267.801,1319.69 267.505,1319.84 C265.848,1320.64 263.739,1321.09 261.801,1321.09 C258.801,1321.09 255.239,1320.59 251.551,1319.64 L246.989,1335.69 "/>
<path class="MeasureNumber" d="M230.598,386.509 C232.942,385.759 233.895,385.369 235.098,384.556 C237.442,383.009 238.895,380.259 238.895,377.463 C238.895,372.713 235.098,369.509 229.505,369.509 C224.051,369.509 219.442,372.916 219.442,377.009 C219.442,379.056 220.692,380.463 222.598,380.463 C224.255,380.463 225.442,379.259 225.442,377.603 C225.442,376.759 225.192,376.166 224.395,375.353 C223.895,374.916 223.692,374.556 223.692,374.213 C223.692,373.009 226.192,371.759 228.551,371.759 C231.895,371.759 233.895,373.603 233.895,376.713 C233.895,381.166 230.755,385.369 227.395,385.369 C227.255,385.369 226.801,385.306 226.255,385.259 C224.801,385.166 224.801,385.166 224.505,385.166 C223.395,385.166 222.801,385.666 222.801,386.556 C222.801,387.369 223.348,387.869 224.255,387.869 C224.505,387.869 224.848,387.806 225.255,387.759 C225.942,387.619 226.692,387.556 227.145,387.556 C229.505,387.556 231.098,389.666 231.098,392.759 C231.098,398.166 228.442,403.369 222.395,403.369 C219.598,403.369 217.192,401.963 217.192,400.369 C217.192,399.806 217.395,399.619 218.192,399.259 C219.645,398.619 220.255,397.713 220.255,396.369 C220.255,394.619 218.848,393.259 217.051,393.259 C214.895,393.259 213.505,394.963 213.505,397.556 C213.505,402.416 217.192,405.463 223.192,405.463 C230.755,405.463 236.505,400.416 236.505,393.713 C236.505,389.806 234.098,387.619 230.598,386.509 M260.192,386.213 C264.098,384.369 267.755,382.306 267.755,377.306 C267.755,372.759 263.895,369.509 258.551,369.509 C252.098,369.509 247.098,374.166 247.098,380.213 C247.098,383.259 248.145,385.213 250.848,387.166 C244.942,389.416 241.801,393.056 241.801,397.619 C241.801,402.463 245.801,405.463 252.192,405.463 C259.895,405.463 265.395,400.759 265.395,394.259 C265.395,390.306 263.239,388.213 260.192,386.213 M258.051,385.009 C252.942,382.619 251.098,380.666 251.098,377.806 C251.098,374.353 254.192,371.666 258.145,371.666 C261.598,371.666 263.989,373.853 263.989,377.009 C263.989,380.759 261.395,383.713 258.051,385.009 M252.739,388.509 C255.145,389.619 255.942,390.009 257.192,390.759 C259.692,392.259 261.051,394.259 261.051,396.509 C261.051,400.369 257.442,403.259 252.739,403.259 C248.489,403.259 245.848,400.869 245.848,397.009 C245.848,393.259 248.239,390.306 252.739,388.509"/>
<polyline class="BarLine" fill="none" stroke="#000000" stroke-width="4.47" stroke-linejoin="bevel" points="659.459,453.026 659.459,715.213" />
<polyline class="BarLine" fill="none" stroke="#000000" stroke-width="4.47" stroke-linejoin="bevel" points="1974.81,1403.16 1974.81,1665.34" />
<polyline class="BarLine" fill="none" stroke="#000000" stroke-width="4.47" stroke-linejoin="bevel" points="1405.3,453.026 1405.3,715.213" />
<polyline class="BarLine" fill="none" stroke="#000000" stroke-width="4.47" stroke-linejoin="bevel" points="2762.36,453.026 2762.36,715.213" />
<polyline class="BarLine" fill="none" stroke="#000000" stroke-width="4.47" stroke-linejoin="bevel" points="1730.09,453.026 1730.09,715.213" />
<polyline class="BarLine" fill="none" stroke="#000000" stroke-width="4.47" stroke-linejoin="bevel" points="2310,1403.16 2310,1665.34" />
<polyline class="BarLine" fill="none" stroke="#000000" stroke-width="4.47" stroke-linejoin="bevel" points="214.834,1403.16 214.834,1665.34" />
<polyline class="BarLine" fill="none" stroke="#000000" stroke-width="4.47" stroke-linejoin="bevel" points="828.445,1403.16 828.445,1665.34" />
<polyline class="BarLine" fill="none" stroke="#000000" stroke-width="4.47" stroke-linejoin="bevel" points="2645.2,1403.16 2645.2,1665.34" />
<polyline class="BarLine" fill="none" stroke="#000000" stroke-width="4.47" stroke-linejoin="bevel" points="2658.86,1403.16 2658.86,1665.34" />
<polyline class="BarLine" fill="none" stroke="#000000" stroke-width="4.47" stroke-linejoin="bevel" points="1441.82,1403.16 1441.82,1665.34" />
<polyline class="BarLine" fill="none" stroke="#000000" stroke-width="4.47" stroke-linejoin="bevel" points="2384.02,453.026 2384.02,715.213" />
<polyline class="BarLine" fill="none" stroke="#000000" stroke-width="4.47" stroke-linejoin="bevel" points="2032.06,453.026 2032.06,715.213" />
<polyline class="BarLine" fill="none" stroke="#000000" stroke-width="4.47" stroke-linejoin="bevel" points="214.834,453.026 214.834,715.213" />
<polyline class="BarLine" fill="none" stroke="#000000" stroke-width="4.47" stroke-linejoin="bevel" points="1026.96,453.026 1026.96,715.213" />
<polyline class="BarLine" fill="none" stroke="#000000" stroke-width="4.47" stroke-linejoin="bevel" points="214.834,1663.98 214.834,1766.07" />
<polyline class="BarLine" fill="none" stroke="#000000" stroke-width="4.47" stroke-linejoin="bevel" points="1441.82,1663.98 1441.82,1766.07" />
<polyline class="BarLine" fill="none" stroke="#000000" stroke-width="4.47" stroke-linejoin="bevel" points="828.445,1663.98 828.445,1766.07" />
<polyline class="BarLine" fill="none" stroke="#000000" stroke-width="4.47" stroke-linejoin="bevel" points="1026.96,713.846 1026.96,815.939" />
<polyline class="BarLine" fill="none" stroke="#000000" stroke-width="4.47" stroke-linejoin="bevel" points="1405.3,713.846 1405.3,815.939" />
<polyline class="BarLine" fill="none" stroke="#000000" stroke-width="4.47" stroke-linejoin="bevel" points="1974.81,1663.98 1974.81,1766.07" />
<polyline class="BarLine" fill="none" stroke="#000000" stroke-width="4.47" stroke-linejoin="bevel" points="659.459,713.846 659.459,815.939" />
<polyline class="BarLine" fill="none" stroke="#000000" stroke-width="4.47" stroke-linejoin="bevel" points="2762.36,713.846 2762.36,815.939" />
<polyline class="BarLine" fill="none" stroke="#000000" stroke-width="4.47" stroke-linejoin="bevel" points="1730.09,713.846 1730.09,815.939" />
<polyline class="BarLine" fill="none" stroke="#000000" stroke-width="4.47" stroke-linejoin="bevel" points="2310,1663.98 2310,1766.07" />
<polyline class="BarLine" fill="none" stroke="#000000" stroke-width="4.47" stroke-linejoin="bevel" points="2645.2,1663.98 2645.2,1766.07" />
<polyline class="BarLine" fill="none" stroke="#000000" stroke-width="4.47" stroke-linejoin="bevel" points="2658.86,1663.98 2658.86,1766.07" />
<polyline class="BarLine" fill="none" stroke="#000000" stroke-width="4.47" stroke-linejoin="bevel" points="2384.02,713.846 2384.02,815.939" />
<polyline class="BarLine" fill="none" stroke="#000000" stroke-width="4.47" stroke-linejoin="bevel" points="214.834,713.846 214.834,815.939" />
<polyline class="BarLine" fill="none" stroke="#000000" stroke-width="4.47" stroke-linejoin="bevel" points="2032.06,713.846 2032.06,815.939" />
<path class="TieSegment" stroke="#000000" stroke-width="1.24" stroke-linecap="round" stroke-linejoin="round" fill-rule="evenodd" d="M1456.32,547.038 C1478.35,564.325 1544.44,564.325 1566.47,547.038 C1544.44,572.274 1478.35,572.274 1456.32,547.038"/>
<path class="TieSegment" stroke="#000000" stroke-width="1.24" stroke-linecap="round" stroke-linejoin="round" fill-rule="evenodd" d="M469.047,571.878 C486.214,587.303 537.715,587.303 554.882,571.878 C537.715,594.711 486.214,594.711 469.047,571.878"/>
<path class="TieSegment" stroke="#000000" stroke-width="1.24" stroke-linecap="round" stroke-linejoin="round" fill-rule="evenodd" d="M726.021,547.038 C747.552,564.269 812.146,564.269 833.677,547.038 C812.146,572.218 747.552,572.218 726.021,547.038"/>
<path class="TieSegment" stroke="#000000" stroke-width="1.24" stroke-linecap="round" stroke-linejoin="round" fill-rule="evenodd" d="M843.613,547.038 C860.284,563.74 910.295,563.74 926.965,547.038 C910.295,571.049 860.284,571.049 843.613,547.038"/>
<path class="TieSegment" stroke="#000000" stroke-width="1.24" stroke-linecap="round" stroke-linejoin="round" fill-rule="evenodd" d="M1077.98,547.038 C1099.51,564.269 1164.1,564.269 1185.63,547.038 C1164.1,572.218 1099.51,572.218 1077.98,547.038"/>
<path class="TieSegment" stroke="#000000" stroke-width="1.24" stroke-linecap="round" stroke-linejoin="round" fill-rule="evenodd" d="M1195.57,547.038 C1212.24,563.74 1262.25,563.74 1278.92,547.038 C1262.25,571.049 1212.24,571.049 1195.57,547.038"/>
<path class="TieSegment" stroke="#000000" stroke-width="1.24" stroke-linecap="round" stroke-linejoin="round" fill-rule="evenodd" d="M381.501,1497.17 C420.464,1520.14 537.352,1520.14 576.315,1497.17 C537.352,1528.09 420.464,1528.09 381.501,1497.17"/>
<path class="TieSegment" stroke="#000000" stroke-width="1.24" stroke-linecap="round" stroke-linejoin="round" fill-rule="evenodd" d="M1841.65,571.878 C1858.81,587.303 1910.32,587.303 1927.48,571.878 C1910.32,594.711 1858.81,594.711 1841.65,571.878"/>
<path class="TieSegment" stroke="#000000" stroke-width="1.24" stroke-linecap="round" stroke-linejoin="round" fill-rule="evenodd" d="M2083.08,547.038 C2104.61,564.269 2169.21,564.269 2190.74,547.038 C2169.21,572.218 2104.61,572.218 2083.08,547.038"/>
<path class="TieSegment" stroke="#000000" stroke-width="1.24" stroke-linecap="round" stroke-linejoin="round" fill-rule="evenodd" d="M2200.67,547.038 C2217.34,563.74 2267.36,563.74 2284.03,547.038 C2267.36,571.049 2217.34,571.049 2200.67,547.038"/>
<path class="TieSegment" stroke="#000000" stroke-width="1.24" stroke-linecap="round" stroke-linejoin="round" fill-rule="evenodd" d="M2435.04,547.038 C2456.57,564.269 2521.16,564.269 2542.69,547.038 C2521.16,572.218 2456.57,572.218 2435.04,547.038"/>
<path class="TieSegment" stroke="#000000" stroke-width="1.24" stroke-linecap="round" stroke-linejoin="round" fill-rule="evenodd" d="M1793.01,1484.85 C1838.58,1516.21 1975.29,1516.21 2020.86,1484.85 C1975.29,1524.16 1838.58,1524.16 1793.01,1484.85"/>
<path class="TieSegment" stroke="#000000" stroke-width="1.24" stroke-linecap="round" stroke-linejoin="round" fill-rule="evenodd" d="M2552.63,547.038 C2569.3,563.74 2619.31,563.74 2635.98,547.038 C2619.31,571.049 2569.3,571.049 2552.63,547.038"/>
<path class="TieSegment" stroke="#000000" stroke-width="1.24" stroke-linecap="round" stroke-linejoin="round" fill-rule="evenodd" d="M1632.93,1484.75 C1662.96,1496.99 1753.05,1496.99 1783.08,1484.75 C1753.05,1504.94 1662.96,1504.94 1632.93,1484.75"/>
<path class="Accidental" transform="matrix(0.9936,0,0,0.9936,1307.14,516.493)" d="M13.2031,-4 C13.2031,3.90625 9.09375,8.09375 3.29688,12.7031 L3.59375,-6.79688 C3.79688,-7.70313 5.29688,-10.5938 9.29688,-10.5938 C12.9063,-10.5938 13.2031,-7.20313 13.2031,-5.09375 L13.2031,-4 M12,-15.5 C7,-15.5 4.09375,-12.4063 3.59375,-11.7969 L4,-43.9063 C4,-44.7031 3.40625,-45.2969 2.59375,-45.2969 L1.40625,-45.2969 C0.59375,-45.2969 0,-44.7031 0,-43.9063 L0.5,16.2031 C0.5,17 1.09375,17.5938 1.90625,17.5938 C2.09375,17.5938 2.5,17.5 2.70313,17.4063 C11.2969,13.0938 20.2969,4.90625 20.2969,-5.40625 C20.2969,-10.5938 17.9063,-15.5 12,-15.5"/>
<path class="Accidental" transform="matrix(0.9936,0,0,0.9936,338.925,528.913)" d="M7.79688,-7.40625 L16.7031,-9.20313 L16.7031,7.29688 L7.79688,9.20313 L7.79688,-7.40625 M23.2969,-10.5 C23.9063,-10.5938 24.4063,-11.2969 24.4063,-11.9063 L24.4063,-17.7969 C24.4063,-18.5938 23.7969,-19.2031 23,-19.2031 L22.7969,-19.2031 L19.5,-18.5 L19.5,-33.4063 L16.7031,-33.4063 L16.7031,-17.9063 L7.79688,-16.0938 L7.79688,-30.2031 L5,-30.2031 L5,-15.5 L1.09375,-14.7031 C0.5,-14.5938 0,-13.9063 0,-13.2969 L0,-7.5 C0,-6.70313 0.59375,-6.09375 1.40625,-6.09375 L1.70313,-6.09375 L5,-6.79688 L5,9.70313 L1.09375,10.5 C0.5,10.5938 0,11.2969 0,11.9063 L0,17.7031 C0,18.5 0.59375,19.0938 1.40625,19.0938 L1.70313,19.0938 L5,18.4063 L5,33.2969 L7.79688,33.2969 L7.79688,17.7969 L16.7031,16 L16.7031,30.1094 L19.5,30.1094 L19.5,15.4063 L23.2969,14.7031 C23.9063,14.5938 24.4063,13.9063 24.4063,13.2969 L24.4063,7.40625 C24.4063,6.59375 23.7969,6 23,6 L22.7969,6 L19.5,6.70313 L19.5,-9.79688 L23.2969,-10.5 "/>
<path class="Accidental" transform="matrix(0.9936,0,0,0.9936,677.84,528.913)" d="M7.79688,-7.40625 L16.7031,-9.20313 L16.7031,7.29688 L7.79688,9.20313 L7.79688,-7.40625 M23.2969,-10.5 C23.9063,-10.5938 24.4063,-11.2969 24.4063,-11.9063 L24.4063,-17.7969 C24.4063,-18.5938 23.7969,-19.2031 23,-19.2031 L22.7969,-19.2031 L19.5,-18.5 L19.5,-33.4063 L16.7031,-33.4063 L16.7031,-17.9063 L7.79688,-16.0938 L7.79688,-30.2031 L5,-30.2031 L5,-15.5 L1.09375,-14.7031 C0.5,-14.5938 0,-13.9063 0,-13.2969 L0,-7.5 C0,-6.70313 0.59375,-6.09375 1.40625,-6.09375 L1.70313,-6.09375 L5,-6.79688 L5,9.70313 L1.09375,10.5 C0.5,10.5938 0,11.2969 0,11.9063 L0,17.7031 C0,18.5 0.59375,19.0938 1.40625,19.0938 L1.70313,19.0938 L5,18.4063 L5,33.2969 L7.79688,33.2969 L7.79688,17.7969 L16.7031,16 L16.7031,30.1094 L19.5,30.1094 L19.5,15.4063 L23.2969,14.7031 C23.9063,14.5938 24.4063,13.9063 24.4063,13.2969 L24.4063,7.40625 C24.4063,6.59375 23.7969,6 23,6 L22.7969,6 L19.5,6.70313 L19.5,-9.79688 L23.2969,-10.5 "/>
<path class="Accidental" transform="matrix(0.9936,0,0,0.9936,2664.2,516.493)" d="M13.2031,-4 C13.2031,3.90625 9.09375,8.09375 3.29688,12.7031 L3.59375,-6.79688 C3.79688,-7.70313 5.29688,-10.5938 9.29688,-10.5938 C12.9063,-10.5938 13.2031,-7.20313 13.2031,-5.09375 L13.2031,-4 M12,-15.5 C7,-15.5 4.09375,-12.4063 3.59375,-11.7969 L4,-43.9063 C4,-44.7031 3.40625,-45.2969 2.59375,-45.2969 L1.40625,-45.2969 C0.59375,-45.2969 0,-44.7031 0,-43.9063 L0.5,16.2031 C0.5,17 1.09375,17.5938 1.90625,17.5938 C2.09375,17.5938 2.5,17.5 2.70313,17.4063 C11.2969,13.0938 20.2969,4.90625 20.2969,-5.40625 C20.2969,-10.5938 17.9063,-15.5 12,-15.5"/>
<polyline class="Stem" fill="none" stroke="#000000" stroke-width="2.48" stroke-linejoin="bevel" points="2448.35,524.938 2448.35,441.973" />
<polyline class="Stem" fill="none" stroke="#000000" stroke-width="2.48" stroke-linejoin="bevel" points="2343.28,537.358 2343.28,460.425" />
<polyline class="Stem" fill="none" stroke="#000000" stroke-width="2.48" stroke-linejoin="bevel" points="2563.46,524.938 2563.46,441.973" />
<polyline class="Stem" fill="none" stroke="#000000" stroke-width="2.48" stroke-linejoin="bevel" points="2302.31,524.938 2302.31,454.57" />
<polyline class="Stem" fill="none" stroke="#000000" stroke-width="2.48" stroke-linejoin="bevel" points="2211.5,524.938 2211.5,441.973" />
<polyline class="Stem" fill="none" stroke="#000000" stroke-width="2.48" stroke-linejoin="bevel" points="2654.26,524.938 2654.26,441.862" />
<polyline class="Stem" fill="none" stroke="#000000" stroke-width="2.48" stroke-linejoin="bevel" points="2721.63,512.518 2721.63,435.873" />
<polyline class="Stem" fill="none" stroke="#000000" stroke-width="2.48" stroke-linejoin="bevel" points="2039.15,1462.65 2039.15,1385.89" />
<polyline class="Stem" fill="none" stroke="#000000" stroke-width="2.48" stroke-linejoin="bevel" points="1803.84,1462.65 1803.84,1385.89" />
<polyline class="Stem" fill="none" stroke="#000000" stroke-width="2.48" stroke-linejoin="bevel" points="1646.25,1462.65 1646.25,1385.89" />
<polyline class="Stem" fill="none" stroke="#000000" stroke-width="2.48" stroke-linejoin="bevel" points="1576.2,1475.07 1576.2,1392" />
<polyline class="Stem" fill="none" stroke="#000000" stroke-width="2.48" stroke-linejoin="bevel" points="1506.16,1462.65 1506.16,1386" />
<polyline class="Stem" fill="none" stroke="#000000" stroke-width="2.48" stroke-linejoin="bevel" points="394.815,1475.07 394.815,1392.1" />
<polyline class="Stem" fill="none" stroke="#000000" stroke-width="2.48" stroke-linejoin="bevel" points="594.597,1475.07 594.597,1392.1" />
<polyline class="Stem" fill="none" stroke="#000000" stroke-width="2.48" stroke-linejoin="bevel" points="752.194,1487.49 752.194,1404.72" />
<polyline class="Stem" fill="none" stroke="#000000" stroke-width="2.48" stroke-linejoin="bevel" points="1365.57,1450.23 1365.57,1373.47" />
<polyline class="Stem" fill="none" stroke="#000000" stroke-width="2.48" stroke-linejoin="bevel" points="1260.51,1437.81 1260.51,1373.47" />
<polyline class="Stem" fill="none" stroke="#000000" stroke-width="2.48" stroke-linejoin="bevel" points="1155.44,1512.33 1155.44,1373.47" />
<polyline class="Stem" fill="none" stroke="#000000" stroke-width="2.48" stroke-linejoin="bevel" points="997.845,1499.91 997.845,1416.94" />
<polyline class="Stem" fill="none" stroke="#000000" stroke-width="2.48" stroke-linejoin="bevel" points="892.78,1487.49 892.78,1404.72" />
<polyline class="Stem" fill="none" stroke="#000000" stroke-width="2.48" stroke-linejoin="bevel" points="1469.64,524.938 1469.64,441.973" />
<polyline class="Stem" fill="none" stroke="#000000" stroke-width="2.48" stroke-linejoin="bevel" points="945.247,524.938 945.247,454.57" />
<polyline class="Stem" fill="none" stroke="#000000" stroke-width="2.48" stroke-linejoin="bevel" points="854.444,524.938 854.444,441.973" />
<polyline class="Stem" fill="none" stroke="#000000" stroke-width="2.48" stroke-linejoin="bevel" points="986.218,537.358 986.218,460.425" />
<polyline class="Stem" fill="none" stroke="#000000" stroke-width="2.48" stroke-linejoin="bevel" points="1091.29,524.938 1091.29,441.973" />
<polyline class="Stem" fill="none" stroke="#000000" stroke-width="2.48" stroke-linejoin="bevel" points="739.335,524.938 739.335,441.973" />
<polyline class="Stem" fill="none" stroke="#000000" stroke-width="2.48" stroke-linejoin="bevel" points="1206.4,524.938 1206.4,441.973" />
<polyline class="Stem" fill="none" stroke="#000000" stroke-width="2.48" stroke-linejoin="bevel" points="1297.2,524.938 1297.2,441.862" />
<polyline class="Stem" fill="none" stroke="#000000" stroke-width="2.48" stroke-linejoin="bevel" points="1364.57,512.518 1364.57,435.873" />
<polyline class="Stem" fill="none" stroke="#000000" stroke-width="2.48" stroke-linejoin="bevel" points="573.164,549.778 573.164,466.813" />
<polyline class="Stem" fill="none" stroke="#000000" stroke-width="2.48" stroke-linejoin="bevel" points="482.361,549.778 482.361,466.813" />
<polyline class="Stem" fill="none" stroke="#000000" stroke-width="2.48" stroke-linejoin="bevel" points="1584.75,524.938 1584.75,441.973" />
<polyline class="Stem" fill="none" stroke="#000000" stroke-width="2.48" stroke-linejoin="bevel" points="441.39,537.358 441.39,460.425" />
<polyline class="Stem" fill="none" stroke="#000000" stroke-width="2.48" stroke-linejoin="bevel" points="1675.55,537.358 1675.55,454.591" />
<polyline class="Stem" fill="none" stroke="#000000" stroke-width="2.48" stroke-linejoin="bevel" points="1794.43,537.358 1794.43,454.591" />
<polyline class="Stem" fill="none" stroke="#000000" stroke-width="2.48" stroke-linejoin="bevel" points="400.42,524.938 400.42,454.57" />
<polyline class="Stem" fill="none" stroke="#000000" stroke-width="2.48" stroke-linejoin="bevel" points="2096.4,524.938 2096.4,441.973" />
<polyline class="Stem" fill="none" stroke="#000000" stroke-width="2.48" stroke-linejoin="bevel" points="1945.77,549.778 1945.77,466.813" />
<polyline class="Stem" fill="none" stroke="#000000" stroke-width="2.48" stroke-linejoin="bevel" points="1854.96,549.778 1854.96,466.813" />
<path class="Hook" transform="matrix(0.9936,0,0,0.9936,750.952,1404.52)" d="M0,22.7031 C0,23 0.09375,23.5 0.796875,23.7969 C5.09375,25.2031 13.7031,30.6094 20.2031,41.7031 C22,44.7969 24.9063,49.1094 24.9063,57.4063 C24.9063,64.6094 23,72 20.4063,79.2031 C20.2031,79.8125 20,80.3125 20.0938,80.7031 C20.0938,81.3125 20.5,81.7031 21.0938,81.7031 C21.7969,81.7031 22.2969,81.3125 22.7031,80.6094 C27.2031,72.6094 28.9063,63.2969 28.9063,54.2031 C28.4063,41.2969 21,31.7969 21,31.7969 C21.2969,31.7969 11.7969,19.5 9.09375,15.2969 C5.40625,9.59375 3.70313,3.90625 3.5,3.5 C3.40625,3.20313 2.5,-0.40625 2.5,-0.40625 C2.40625,-0.796875 1.90625,-1.20313 1.29688,-1.20313 C0.59375,-1.20313 0,-0.59375 0,0.09375 L0,22.7031 "/>
<path class="Hook" transform="matrix(0.9936,0,0,0.9936,891.538,1404.52)" d="M0,22.7031 C0,23 0.09375,23.5 0.796875,23.7969 C5.09375,25.2031 13.7031,30.6094 20.2031,41.7031 C22,44.7969 24.9063,49.1094 24.9063,57.4063 C24.9063,64.6094 23,72 20.4063,79.2031 C20.2031,79.8125 20,80.3125 20.0938,80.7031 C20.0938,81.3125 20.5,81.7031 21.0938,81.7031 C21.7969,81.7031 22.2969,81.3125 22.7031,80.6094 C27.2031,72.6094 28.9063,63.2969 28.9063,54.2031 C28.4063,41.2969 21,31.7969 21,31.7969 C21.2969,31.7969 11.7969,19.5 9.09375,15.2969 C5.40625,9.59375 3.70313,3.90625 3.5,3.5 C3.40625,3.20313 2.5,-0.40625 2.5,-0.40625 C2.40625,-0.796875 1.90625,-1.20313 1.29688,-1.20313 C0.59375,-1.20313 0,-0.59375 0,0.09375 L0,22.7031 "/>
<path class="Hook" transform="matrix(0.9936,0,0,0.9936,1793.18,454.393)" d="M0,22.7031 C0,23 0.09375,23.5 0.796875,23.7969 C5.09375,25.2031 13.7031,30.6094 20.2031,41.7031 C22,44.7969 24.9063,49.1094 24.9063,57.4063 C24.9063,64.6094 23,72 20.4063,79.2031 C20.2031,79.8125 20,80.3125 20.0938,80.7031 C20.0938,81.3125 20.5,81.7031 21.0938,81.7031 C21.7969,81.7031 22.2969,81.3125 22.7031,80.6094 C27.2031,72.6094 28.9063,63.2969 28.9063,54.2031 C28.4063,41.2969 21,31.7969 21,31.7969 C21.2969,31.7969 11.7969,19.5 9.09375,15.2969 C5.40625,9.59375 3.70313,3.90625 3.5,3.5 C3.40625,3.20313 2.5,-0.40625 2.5,-0.40625 C2.40625,-0.796875 1.90625,-1.20313 1.29688,-1.20313 C0.59375,-1.20313 0,-0.59375 0,0.09375 L0,22.7031 "/>
<path class="Hook" transform="matrix(0.9936,0,0,0.9936,1674.31,454.393)" d="M0,22.7031 C0,23 0.09375,23.5 0.796875,23.7969 C5.09375,25.2031 13.7031,30.6094 20.2031,41.7031 C22,44.7969 24.9063,49.1094 24.9063,57.4063 C24.9063,64.6094 23,72 20.4063,79.2031 C20.2031,79.8125 20,80.3125 20.0938,80.7031 C20.0938,81.3125 20.5,81.7031 21.0938,81.7031 C21.7969,81.7031 22.2969,81.3125 22.7031,80.6094 C27.2031,72.6094 28.9063,63.2969 28.9063,54.2031 C28.4063,41.2969 21,31.7969 21,31.7969 C21.2969,31.7969 11.7969,19.5 9.09375,15.2969 C5.40625,9.59375 3.70313,3.90625 3.5,3.5 C3.40625,3.20313 2.5,-0.40625 2.5,-0.40625 C2.40625,-0.796875 1.90625,-1.20313 1.29688,-1.20313 C0.59375,-1.20313 0,-0.59375 0,0.09375 L0,22.7031 "/>
<path class="Note" transform="matrix(0.9936,0,0,0.9936,363.765,1479.04)" d="M0,4.20313 C0,8.5 3.09375,13.2969 11.2031,13.2969 C21.5938,13.2969 32.5,4.79688 32.5,-4 C32.5,-9.90625 27.5,-13.2031 21.2969,-13.2031 C11.5938,-13.2031 0,-5 0,4.20313"/>
<path class="Note" transform="matrix(0.9936,0,0,0.9936,1334.52,1454.2)" d="M0,4.20313 C0,8.5 3.09375,13.2969 11.2031,13.2969 C21.5938,13.2969 32.5,4.79688 32.5,-4 C32.5,-9.90625 27.5,-13.2031 21.2969,-13.2031 C11.5938,-13.2031 0,-5 0,4.20313"/>
<path class="Note" transform="matrix(0.9936,0,0,0.9936,542.114,553.753)" d="M0,4.20313 C0,8.5 3.09375,13.2969 11.2031,13.2969 C21.5938,13.2969 32.5,4.79688 32.5,-4 C32.5,-9.90625 27.5,-13.2031 21.2969,-13.2031 C11.5938,-13.2031 0,-5 0,4.20313"/>
<path class="Note" transform="matrix(0.9936,0,0,0.9936,1266.15,528.913)" d="M0,4.20313 C0,8.5 3.09375,13.2969 11.2031,13.2969 C21.5938,13.2969 32.5,4.79688 32.5,-4 C32.5,-9.90625 27.5,-13.2031 21.2969,-13.2031 C11.5938,-13.2031 0,-5 0,4.20313"/>
<path class="Note" transform="matrix(0.9936,0,0,0.9936,861.73,1491.46)" d="M0,4.20313 C0,8.5 3.09375,13.2969 11.2031,13.2969 C21.5938,13.2969 32.5,4.79688 32.5,-4 C32.5,-9.90625 27.5,-13.2031 21.2969,-13.2031 C11.5938,-13.2031 0,-5 0,4.20313"/>
<path class="Note" transform="matrix(0.9936,0,0,0.9936,1175.35,528.913)" d="M0,4.20313 C0,8.5 3.09375,13.2969 11.2031,13.2969 C21.5938,13.2969 32.5,4.79688 32.5,-4 C32.5,-9.90625 27.5,-13.2031 21.2969,-13.2031 C11.5938,-13.2031 0,-5 0,4.20313"/>
<path class="Note" transform="matrix(0.9936,0,0,0.9936,2065.35,528.913)" d="M0,4.20313 C0,8.5 3.09375,13.2969 11.2031,13.2969 C21.5938,13.2969 32.5,4.79688 32.5,-4 C32.5,-9.90625 27.5,-13.2031 21.2969,-13.2031 C11.5938,-13.2031 0,-5 0,4.20313"/>
<path class="Note" transform="matrix(0.9936,0,0,0.9936,955.168,541.333)" d="M0,4.20313 C0,8.5 3.09375,13.2969 11.2031,13.2969 C21.5938,13.2969 32.5,4.79688 32.5,-4 C32.5,-9.90625 27.5,-13.2031 21.2969,-13.2031 C11.5938,-13.2031 0,-5 0,4.20313"/>
<path class="Note" transform="matrix(0.9936,0,0,0.9936,2180.45,528.913)" d="M0,4.20313 C0,8.5 3.09375,13.2969 11.2031,13.2969 C21.5938,13.2969 32.5,4.79688 32.5,-4 C32.5,-9.90625 27.5,-13.2031 21.2969,-13.2031 C11.5938,-13.2031 0,-5 0,4.20313"/>
<path class="Note" transform="matrix(0.9936,0,0,0.9936,2271.26,528.913)" d="M0,4.20313 C0,8.5 3.09375,13.2969 11.2031,13.2969 C21.5938,13.2969 32.5,4.79688 32.5,-4 C32.5,-9.90625 27.5,-13.2031 21.2969,-13.2031 C11.5938,-13.2031 0,-5 0,4.20313"/>
<path class="Note" transform="matrix(0.9936,0,0,0.9936,823.394,528.913)" d="M0,4.20313 C0,8.5 3.09375,13.2969 11.2031,13.2969 C21.5938,13.2969 32.5,4.79688 32.5,-4 C32.5,-9.90625 27.5,-13.2031 21.2969,-13.2031 C11.5938,-13.2031 0,-5 0,4.20313"/>
<path class="Note" transform="matrix(0.9936,0,0,0.9936,1772.79,1466.62)" d="M0,4.20313 C0,8.5 3.09375,13.2969 11.2031,13.2969 C21.5938,13.2969 32.5,4.79688 32.5,-4 C32.5,-9.90625 27.5,-13.2031 21.2969,-13.2031 C11.5938,-13.2031 0,-5 0,4.20313"/>
<path class="Note" transform="matrix(0.9936,0,0,0.9936,1615.2,1466.62)" d="M0,4.20313 C0,8.5 3.09375,13.2969 11.2031,13.2969 C21.5938,13.2969 32.5,4.79688 32.5,-4 C32.5,-9.90625 27.5,-13.2031 21.2969,-13.2031 C11.5938,-13.2031 0,-5 0,4.20313"/>
<path class="Note" transform="matrix(0.9936,0,0,0.9936,1545.15,1479.04)" d="M0,4.20313 C0,8.5 3.09375,13.2969 11.2031,13.2969 C21.5938,13.2969 32.5,4.79688 32.5,-4 C32.5,-9.90625 27.5,-13.2031 21.2969,-13.2031 C11.5938,-13.2031 0,-5 0,4.20313"/>
<path class="Note" transform="matrix(0.9936,0,0,0.9936,563.547,1479.04)" d="M0,4.20313 C0,8.5 3.09375,13.2969 11.2031,13.2969 C21.5938,13.2969 32.5,4.79688 32.5,-4 C32.5,-9.90625 27.5,-13.2031 21.2969,-13.2031 C11.5938,-13.2031 0,-5 0,4.20313"/>
<path class="Note" transform="matrix(0.9936,0,0,0.9936,708.285,528.913)" d="M0,4.20313 C0,8.5 3.09375,13.2969 11.2031,13.2969 C21.5938,13.2969 32.5,4.79688 32.5,-4 C32.5,-9.90625 27.5,-13.2031 21.2969,-13.2031 C11.5938,-13.2031 0,-5 0,4.20313"/>
<path class="Note" transform="matrix(0.9936,0,0,0.9936,1060.24,528.913)" d="M0,4.20313 C0,8.5 3.09375,13.2969 11.2031,13.2969 C21.5938,13.2969 32.5,4.79688 32.5,-4 C32.5,-9.90625 27.5,-13.2031 21.2969,-13.2031 C11.5938,-13.2031 0,-5 0,4.20313"/>
<path class="Note" transform="matrix(0.9936,0,0,0.9936,1475.11,1466.62)" d="M0,4.20313 C0,8.5 3.09375,13.2969 11.2031,13.2969 C21.5938,13.2969 32.5,4.79688 32.5,-4 C32.5,-9.90625 27.5,-13.2031 21.2969,-13.2031 C11.5938,-13.2031 0,-5 0,4.20313"/>
<path class="Note" transform="matrix(0.9936,0,0,0.9936,721.144,1491.46)" d="M0,4.20313 C0,8.5 3.09375,13.2969 11.2031,13.2969 C21.5938,13.2969 32.5,4.79688 32.5,-4 C32.5,-9.90625 27.5,-13.2031 21.2969,-13.2031 C11.5938,-13.2031 0,-5 0,4.20313"/>
<path class="Note" transform="matrix(0.9936,0,0,0.9936,1823.91,553.753)" d="M0,4.20313 C0,8.5 3.09375,13.2969 11.2031,13.2969 C21.5938,13.2969 32.5,4.79688 32.5,-4 C32.5,-9.90625 27.5,-13.2031 21.2969,-13.2031 C11.5938,-13.2031 0,-5 0,4.20313"/>
<path class="Note" transform="matrix(0.9936,0,0,0.9936,2417.3,528.913)" d="M0,4.20313 C0,8.5 3.09375,13.2969 11.2031,13.2969 C21.5938,13.2969 32.5,4.79688 32.5,-4 C32.5,-9.90625 27.5,-13.2031 21.2969,-13.2031 C11.5938,-13.2031 0,-5 0,4.20313"/>
<path class="Note" transform="matrix(0.9936,0,0,0.9936,1229.46,1441.78)" d="M0,4.20313 C0,8.5 3.09375,13.2969 11.2031,13.2969 C21.5938,13.2969 32.5,4.79688 32.5,-4 C32.5,-9.90625 27.5,-13.2031 21.2969,-13.2031 C11.5938,-13.2031 0,-5 0,4.20313"/>
<path class="Note" transform="matrix(0.9936,0,0,0.9936,369.37,528.913)" d="M0,4.20313 C0,8.5 3.09375,13.2969 11.2031,13.2969 C21.5938,13.2969 32.5,4.79688 32.5,-4 C32.5,-9.90625 27.5,-13.2031 21.2969,-13.2031 C11.5938,-13.2031 0,-5 0,4.20313"/>
<path class="Note" transform="matrix(0.9936,0,0,0.9936,2532.41,528.913)" d="M0,4.20313 C0,8.5 3.09375,13.2969 11.2031,13.2969 C21.5938,13.2969 32.5,4.79688 32.5,-4 C32.5,-9.90625 27.5,-13.2031 21.2969,-13.2031 C11.5938,-13.2031 0,-5 0,4.20313"/>
<path class="Note" transform="matrix(0.9936,0,0,0.9936,1763.38,541.333)" d="M0,4.20313 C0,8.5 3.09375,13.2969 11.2031,13.2969 C21.5938,13.2969 32.5,4.79688 32.5,-4 C32.5,-9.90625 27.5,-13.2031 21.2969,-13.2031 C11.5938,-13.2031 0,-5 0,4.20313"/>
<path class="Note" transform="matrix(0.9936,0,0,0.9936,2623.21,528.913)" d="M0,4.20313 C0,8.5 3.09375,13.2969 11.2031,13.2969 C21.5938,13.2969 32.5,4.79688 32.5,-4 C32.5,-9.90625 27.5,-13.2031 21.2969,-13.2031 C11.5938,-13.2031 0,-5 0,4.20313"/>
<path class="Note" transform="matrix(0.9936,0,0,0.9936,1124.39,1516.3)" d="M0,4.20313 C0,8.5 3.09375,13.2969 11.2031,13.2969 C21.5938,13.2969 32.5,4.79688 32.5,-4 C32.5,-9.90625 27.5,-13.2031 21.2969,-13.2031 C11.5938,-13.2031 0,-5 0,4.20313"/>
<path class="Note" transform="matrix(0.9936,0,0,0.9936,914.197,528.913)" d="M0,4.20313 C0,8.5 3.09375,13.2969 11.2031,13.2969 C21.5938,13.2969 32.5,4.79688 32.5,-4 C32.5,-9.90625 27.5,-13.2031 21.2969,-13.2031 C11.5938,-13.2031 0,-5 0,4.20313"/>
<path class="Note" transform="matrix(0.9936,0,0,0.9936,2690.58,516.493)" d="M0,4.20313 C0,8.5 3.09375,13.2969 11.2031,13.2969 C21.5938,13.2969 32.5,4.79688 32.5,-4 C32.5,-9.90625 27.5,-13.2031 21.2969,-13.2031 C11.5938,-13.2031 0,-5 0,4.20313"/>
<path class="Note" transform="matrix(0.9936,0,0,0.9936,1644.5,541.333)" d="M0,4.20313 C0,8.5 3.09375,13.2969 11.2031,13.2969 C21.5938,13.2969 32.5,4.79688 32.5,-4 C32.5,-9.90625 27.5,-13.2031 21.2969,-13.2031 C11.5938,-13.2031 0,-5 0,4.20313"/>
<path class="Note" transform="matrix(0.9936,0,0,0.9936,2312.23,541.333)" d="M0,4.20313 C0,8.5 3.09375,13.2969 11.2031,13.2969 C21.5938,13.2969 32.5,4.79688 32.5,-4 C32.5,-9.90625 27.5,-13.2031 21.2969,-13.2031 C11.5938,-13.2031 0,-5 0,4.20313"/>
<path class="Note" transform="matrix(0.9936,0,0,0.9936,966.795,1503.88)" d="M0,4.20313 C0,8.5 3.09375,13.2969 11.2031,13.2969 C21.5938,13.2969 32.5,4.79688 32.5,-4 C32.5,-9.90625 27.5,-13.2031 21.2969,-13.2031 C11.5938,-13.2031 0,-5 0,4.20313"/>
<path class="Note" transform="matrix(0.9936,0,0,0.9936,2008.1,1466.62)" d="M7.5,8.59375 C4.20313,8.59375 3.5,5.90625 3.5,5 C3.5,0.09375 20.2969,-8.5 25,-8.5 C27.4063,-8.5 29,-7.09375 29,-4.90625 C29,0.09375 12.0938,8.59375 7.5,8.59375 M21.2969,-13.2031 C11.5938,-13.2031 0,-5.09375 0,4.20313 C0,8.5 3.09375,13.2969 11.2031,13.2969 C21.5938,13.2969 32.5,4.79688 32.5,-4 C32.5,-9.90625 27.5,-13.2031 21.2969,-13.2031"/>
<path class="Note" transform="matrix(0.9936,0,0,0.9936,1553.7,528.913)" d="M0,4.20313 C0,8.5 3.09375,13.2969 11.2031,13.2969 C21.5938,13.2969 32.5,4.79688 32.5,-4 C32.5,-9.90625 27.5,-13.2031 21.2969,-13.2031 C11.5938,-13.2031 0,-5 0,4.20313"/>
<path class="Note" transform="matrix(0.9936,0,0,0.9936,410.34,541.333)" d="M0,4.20313 C0,8.5 3.09375,13.2969 11.2031,13.2969 C21.5938,13.2969 32.5,4.79688 32.5,-4 C32.5,-9.90625 27.5,-13.2031 21.2969,-13.2031 C11.5938,-13.2031 0,-5 0,4.20313"/>
<path class="Note" transform="matrix(0.9936,0,0,0.9936,1914.72,553.753)" d="M0,4.20313 C0,8.5 3.09375,13.2969 11.2031,13.2969 C21.5938,13.2969 32.5,4.79688 32.5,-4 C32.5,-9.90625 27.5,-13.2031 21.2969,-13.2031 C11.5938,-13.2031 0,-5 0,4.20313"/>
<path class="Note" transform="matrix(0.9936,0,0,0.9936,451.311,553.753)" d="M0,4.20313 C0,8.5 3.09375,13.2969 11.2031,13.2969 C21.5938,13.2969 32.5,4.79688 32.5,-4 C32.5,-9.90625 27.5,-13.2031 21.2969,-13.2031 C11.5938,-13.2031 0,-5 0,4.20313"/>
<path class="Note" transform="matrix(0.9936,0,0,0.9936,1438.59,528.913)" d="M0,4.20313 C0,8.5 3.09375,13.2969 11.2031,13.2969 C21.5938,13.2969 32.5,4.79688 32.5,-4 C32.5,-9.90625 27.5,-13.2031 21.2969,-13.2031 C11.5938,-13.2031 0,-5 0,4.20313"/>
<path class="Note" transform="matrix(0.9936,0,0,0.9936,1333.52,516.493)" d="M0,4.20313 C0,8.5 3.09375,13.2969 11.2031,13.2969 C21.5938,13.2969 32.5,4.79688 32.5,-4 C32.5,-9.90625 27.5,-13.2031 21.2969,-13.2031 C11.5938,-13.2031 0,-5 0,4.20313"/>
<path class="Clef" transform="matrix(0.9936,0,0,0.9936,235.7,528.913)" d="M42,20.5938 C40,21 38.1094,21.2031 36.2031,21.2031 C21.9063,21.2031 9.70313,11.2031 9.70313,-3.90625 C9.70313,-16.0938 18.2969,-27 27.1094,-34.6094 C28.7969,-36.1094 30.4063,-37.5 31.9063,-39 C32.7969,-33.6094 33.5,-28.9063 34.2031,-24.7969 C25.0938,-22.0938 18.9063,-12.5 18.9063,-3.09375 C18.9063,3.90625 24.4063,13.5 32.4063,13.5 C33.2031,13.5 34.1094,13.0938 34.1094,12.2031 C34.1094,11.2969 33.1094,10.7969 31.9063,10 C28,7.59375 25.7969,5 25.7969,0.09375 C25.7969,-6 30.2969,-10.9063 36.2031,-12.2969 L42,20.5938 M33.2031,-82.2031 C34.1094,-86.2031 38.7031,-96.7031 43.9063,-96.7031 C45.4063,-96.7031 47.7969,-91.8125 47.7969,-84.9063 C47.7969,-74.5 40.1094,-66.7031 33.2031,-59.9063 C32.6094,-63.9063 32.1094,-67.7969 32.1094,-72 C32.1094,-75.7031 32.4063,-79.1094 33.2031,-82.2031 M56.2031,2.09375 C56.2031,9.20313 53.2969,16.5 46.2031,19.4063 C44.1094,7.40625 41.4063,-8.5 40.7031,-12.9063 C49.7031,-12.9063 56.2031,-6.79688 56.2031,2.09375 M12.2031,51.2969 C12.2031,57.9063 17.2969,66.6094 30.7969,66.6094 C35.5,66.6094 39.6094,65.4063 43.2031,63.2031 C48.6094,59.4063 50,52.7969 50,46.5 C50,42.6094 49.4063,38.1094 48.4063,32.4063 C48.1094,30.4063 47.5,27.4063 46.9063,23.5 C56.7031,20.2969 64,10.0938 64,-0.203125 C64,-15.2969 53.2969,-25.5 38.7031,-25.5 C37.7031,-31.5 36.7031,-37.4063 35.7969,-43 C46.4063,-54.1094 53.7031,-66.6094 53.7031,-82.5 C53.7031,-91.6094 50.9063,-99 49.2969,-102.609 C46.9063,-107.703 44,-111.203 42.2031,-111.203 C41.5,-111.203 38.4063,-110 35.1094,-106.109 C28.7031,-98.5 26.9063,-85.7031 26.9063,-77.3125 C26.9063,-71.9063 27.4063,-67 29.1094,-55.7969 C29,-55.7031 23.7969,-50.4063 21.7031,-48.7031 C12.5938,-40.2031 0,-28.1094 0,-8.09375 C0,10.5938 16.2969,25.2969 34.9063,25.2969 C37.7969,25.2969 40.5,25 42.7969,24.5938 C44.7031,34.2031 45.7969,41.2031 45.7969,46.5 C45.7969,56.9063 40.5,62.4063 30.4063,62.4063 C28,62.4063 25.9063,61.9063 25.7031,61.9063 C25.6094,61.7969 25.4063,61.7031 25.4063,61.6094 C25.4063,61.4063 25.6094,61.2969 25.9063,61.2031 C30.6094,60.5 35.2969,56.5 35.2969,50.1094 C35.2969,44.7031 31.2031,39 23.7031,39 C16.7031,39 12.2031,44.7031 12.2031,51.2969"/>
<path class="Clef" transform="matrix(0.9936,0,0,0.9936,235.7,1479.04)" d="M42,20.5938 C40,21 38.1094,21.2031 36.2031,21.2031 C21.9063,21.2031 9.70313,11.2031 9.70313,-3.90625 C9.70313,-16.0938 18.2969,-27 27.1094,-34.6094 C28.7969,-36.1094 30.4063,-37.5 31.9063,-39 C32.7969,-33.6094 33.5,-28.9063 34.2031,-24.7969 C25.0938,-22.0938 18.9063,-12.5 18.9063,-3.09375 C18.9063,3.90625 24.4063,13.5 32.4063,13.5 C33.2031,13.5 34.1094,13.0938 34.1094,12.2031 C34.1094,11.2969 33.1094,10.7969 31.9063,10 C28,7.59375 25.7969,5 25.7969,0.09375 C25.7969,-6 30.2969,-10.9063 36.2031,-12.2969 L42,20.5938 M33.2031,-82.2031 C34.1094,-86.2031 38.7031,-96.7031 43.9063,-96.7031 C45.4063,-96.7031 47.7969,-91.8125 47.7969,-84.9063 C47.7969,-74.5 40.1094,-66.7031 33.2031,-59.9063 C32.6094,-63.9063 32.1094,-67.7969 32.1094,-72 C32.1094,-75.7031 32.4063,-79.1094 33.2031,-82.2031 M56.2031,2.09375 C56.2031,9.20313 53.2969,16.5 46.2031,19.4063 C44.1094,7.40625 41.4063,-8.5 40.7031,-12.9063 C49.7031,-12.9063 56.2031,-6.79688 56.2031,2.09375 M12.2031,51.2969 C12.2031,57.9063 17.2969,66.6094 30.7969,66.6094 C35.5,66.6094 39.6094,65.4063 43.2031,63.2031 C48.6094,59.4063 50,52.7969 50,46.5 C50,42.6094 49.4063,38.1094 48.4063,32.4063 C48.1094,30.4063 47.5,27.4063 46.9063,23.5 C56.7031,20.2969 64,10.0938 64,-0.203125 C64,-15.2969 53.2969,-25.5 38.7031,-25.5 C37.7031,-31.5 36.7031,-37.4063 35.7969,-43 C46.4063,-54.1094 53.7031,-66.6094 53.7031,-82.5 C53.7031,-91.6094 50.9063,-99 49.2969,-102.609 C46.9063,-107.703 44,-111.203 42.2031,-111.203 C41.5,-111.203 38.4063,-110 35.1094,-106.109 C28.7031,-98.5 26.9063,-85.7031 26.9063,-77.3125 C26.9063,-71.9063 27.4063,-67 29.1094,-55.7969 C29,-55.7031 23.7969,-50.4063 21.7031,-48.7031 C12.5938,-40.2031 0,-28.1094 0,-8.09375 C0,10.5938 16.2969,25.2969 34.9063,25.2969 C37.7969,25.2969 40.5,25 42.7969,24.5938 C44.7031,34.2031 45.7969,41.2031 45.7969,46.5 C45.7969,56.9063 40.5,62.4063 30.4063,62.4063 C28,62.4063 25.9063,61.9063 25.7031,61.9063 C25.6094,61.7969 25.4063,61.7031 25.4063,61.6094 C25.4063,61.4063 25.6094,61.2969 25.9063,61.2031 C30.6094,60.5 35.2969,56.5 35.2969,50.1094 C35.2969,44.7031 31.2031,39 23.7031,39 C16.7031,39 12.2031,44.7031 12.2031,51.2969"/>
<path class="Clef" transform="matrix(0.9936,0,0,0.9936,235.7,1690.18)" d="M56.7969,-12.4063 C56.7969,-9.59375 59,-7.40625 61.6094,-7.40625 C64.2031,-7.40625 66.4063,-9.59375 66.4063,-12.4063 C66.4063,-15.2031 64.2031,-17.5 61.6094,-17.5 C59,-17.5 56.7969,-15.2031 56.7969,-12.4063 M25.4063,-25.0938 C17.7969,-25.0938 11.7031,-20.7031 11.5938,-20.7031 C5.70313,-16.4063 1.90625,-9.79688 1.90625,-2.5 C1.90625,4.79688 6.09375,10.2031 13.5,10.2031 C19.9063,10.2031 24.9063,5.90625 24.9063,-0.703125 C24.9063,-6.40625 19.9063,-11.0938 14.2969,-11.0938 C13.0938,-11.0938 12,-10.9063 11.0938,-10.5938 C10.0938,-10.2031 8.40625,-9.20313 7.59375,-8.5 C8.29688,-12.9063 11.2969,-17.2969 15.2031,-19.4063 C17.7031,-20.7969 20.9063,-21.4063 24.4063,-21.4063 C34.6094,-21.4063 39.6094,-13.2031 39.6094,3.59375 C39.6094,16.5938 31.2969,35.2969 21.5,44.1094 C11.0938,53.6094 1.29688,58.1094 1.20313,58.1094 C1.20313,58.1094 0,58.7969 0,60 C0,60.2031 0.09375,60.2969 0.09375,60.5 C0.40625,61.5 1.29688,61.7031 1.90625,61.7031 C2,61.7031 2.29688,61.6094 2.40625,61.6094 C2.5,61.6094 13.9063,56.9063 23,49.7969 C37,39.7031 52.7969,21.9063 52.7969,3.5 C52.7969,-13.9063 43.4063,-25.0938 25.4063,-25.0938 M56.7969,12.2969 C56.7969,15.0938 59,17.4063 61.6094,17.4063 C64.2031,17.4063 66.4063,15.0938 66.4063,12.2969 C66.4063,9.5 64.2031,7.20313 61.6094,7.20313 C59,7.20313 56.7969,9.5 56.7969,12.2969"/>
<path class="Clef" transform="matrix(0.9936,0,0,0.9936,235.7,740.053)" d="M56.7969,-12.4063 C56.7969,-9.59375 59,-7.40625 61.6094,-7.40625 C64.2031,-7.40625 66.4063,-9.59375 66.4063,-12.4063 C66.4063,-15.2031 64.2031,-17.5 61.6094,-17.5 C59,-17.5 56.7969,-15.2031 56.7969,-12.4063 M25.4063,-25.0938 C17.7969,-25.0938 11.7031,-20.7031 11.5938,-20.7031 C5.70313,-16.4063 1.90625,-9.79688 1.90625,-2.5 C1.90625,4.79688 6.09375,10.2031 13.5,10.2031 C19.9063,10.2031 24.9063,5.90625 24.9063,-0.703125 C24.9063,-6.40625 19.9063,-11.0938 14.2969,-11.0938 C13.0938,-11.0938 12,-10.9063 11.0938,-10.5938 C10.0938,-10.2031 8.40625,-9.20313 7.59375,-8.5 C8.29688,-12.9063 11.2969,-17.2969 15.2031,-19.4063 C17.7031,-20.7969 20.9063,-21.4063 24.4063,-21.4063 C34.6094,-21.4063 39.6094,-13.2031 39.6094,3.59375 C39.6094,16.5938 31.2969,35.2969 21.5,44.1094 C11.0938,53.6094 1.29688,58.1094 1.20313,58.1094 C1.20313,58.1094 0,58.7969 0,60 C0,60.2031 0.09375,60.2969 0.09375,60.5 C0.40625,61.5 1.29688,61.7031 1.90625,61.7031 C2,61.7031 2.29688,61.6094 2.40625,61.6094 C2.5,61.6094 13.9063,56.9063 23,49.7969 C37,39.7031 52.7969,21.9063 52.7969,3.5 C52.7969,-13.9063 43.4063,-25.0938 25.4063,-25.0938 M56.7969,12.2969 C56.7969,15.0938 59,17.4063 61.6094,17.4063 C64.2031,17.4063 66.4063,15.0938 66.4063,12.2969 C66.4063,9.5 64.2031,7.20313 61.6094,7.20313 C59,7.20313 56.7969,9.5 56.7969,12.2969"/>
<path class="KeySig" transform="matrix(0.9936,0,0,0.9936,2673.51,1404.52)" d="M7.79688,-7.40625 L16.7031,-9.20313 L16.7031,7.29688 L7.79688,9.20313 L7.79688,-7.40625 M23.2969,-10.5 C23.9063,-10.5938 24.4063,-11.2969 24.4063,-11.9063 L24.4063,-17.7969 C24.4063,-18.5938 23.7969,-19.2031 23,-19.2031 L22.7969,-19.2031 L19.5,-18.5 L19.5,-33.4063 L16.7031,-33.4063 L16.7031,-17.9063 L7.79688,-16.0938 L7.79688,-30.2031 L5,-30.2031 L5,-15.5 L1.09375,-14.7031 C0.5,-14.5938 0,-13.9063 0,-13.2969 L0,-7.5 C0,-6.70313 0.59375,-6.09375 1.40625,-6.09375 L1.70313,-6.09375 L5,-6.79688 L5,9.70313 L1.09375,10.5 C0.5,10.5938 0,11.2969 0,11.9063 L0,17.7031 C0,18.5 0.59375,19.0938 1.40625,19.0938 L1.70313,19.0938 L5,18.4063 L5,33.2969 L7.79688,33.2969 L7.79688,17.7969 L16.7031,16 L16.7031,30.1094 L19.5,30.1094 L19.5,15.4063 L23.2969,14.7031 C23.9063,14.5938 24.4063,13.9063 24.4063,13.2969 L24.4063,7.40625 C24.4063,6.59375 23.7969,6 23,6 L22.7969,6 L19.5,6.70313 L19.5,-9.79688 L23.2969,-10.5 "/>
<path class="KeySig" transform="matrix(0.9936,0,0,0.9936,2700.73,1441.78)" d="M7.79688,-7.40625 L16.7031,-9.20313 L16.7031,7.29688 L7.79688,9.20313 L7.79688,-7.40625 M23.2969,-10.5 C23.9063,-10.5938 24.4063,-11.2969 24.4063,-11.9063 L24.4063,-17.7969 C24.4063,-18.5938 23.7969,-19.2031 23,-19.2031 L22.7969,-19.2031 L19.5,-18.5 L19.5,-33.4063 L16.7031,-33.4063 L16.7031,-17.9063 L7.79688,-16.0938 L7.79688,-30.2031 L5,-30.2031 L5,-15.5 L1.09375,-14.7031 C0.5,-14.5938 0,-13.9063 0,-13.2969 L0,-7.5 C0,-6.70313 0.59375,-6.09375 1.40625,-6.09375 L1.70313,-6.09375 L5,-6.79688 L5,9.70313 L1.09375,10.5 C0.5,10.5938 0,11.2969 0,11.9063 L0,17.7031 C0,18.5 0.59375,19.0938 1.40625,19.0938 L1.70313,19.0938 L5,18.4063 L5,33.2969 L7.79688,33.2969 L7.79688,17.7969 L16.7031,16 L16.7031,30.1094 L19.5,30.1094 L19.5,15.4063 L23.2969,14.7031 C23.9063,14.5938 24.4063,13.9063 24.4063,13.2969 L24.4063,7.40625 C24.4063,6.59375 23.7969,6 23,6 L22.7969,6 L19.5,6.70313 L19.5,-9.79688 L23.2969,-10.5 "/>
<path class="KeySig" transform="matrix(0.9936,0,0,0.9936,2727.93,1392.1)" d="M7.79688,-7.40625 L16.7031,-9.20313 L16.7031,7.29688 L7.79688,9.20313 L7.79688,-7.40625 M23.2969,-10.5 C23.9063,-10.5938 24.4063,-11.2969 24.4063,-11.9063 L24.4063,-17.7969 C24.4063,-18.5938 23.7969,-19.2031 23,-19.2031 L22.7969,-19.2031 L19.5,-18.5 L19.5,-33.4063 L16.7031,-33.4063 L16.7031,-17.9063 L7.79688,-16.0938 L7.79688,-30.2031 L5,-30.2031 L5,-15.5 L1.09375,-14.7031 C0.5,-14.5938 0,-13.9063 0,-13.2969 L0,-7.5 C0,-6.70313 0.59375,-6.09375 1.40625,-6.09375 L1.70313,-6.09375 L5,-6.79688 L5,9.70313 L1.09375,10.5 C0.5,10.5938 0,11.2969 0,11.9063 L0,17.7031 C0,18.5 0.59375,19.0938 1.40625,19.0938 L1.70313,19.0938 L5,18.4063 L5,33.2969 L7.79688,33.2969 L7.79688,17.7969 L16.7031,16 L16.7031,30.1094 L19.5,30.1094 L19.5,15.4063 L23.2969,14.7031 C23.9063,14.5938 24.4063,13.9063 24.4063,13.2969 L24.4063,7.40625 C24.4063,6.59375 23.7969,6 23,6 L22.7969,6 L19.5,6.70313 L19.5,-9.79688 L23.2969,-10.5 "/>
<path class="KeySig" transform="matrix(0.9936,0,0,0.9936,2673.51,1690.18)" d="M7.79688,-7.40625 L16.7031,-9.20313 L16.7031,7.29688 L7.79688,9.20313 L7.79688,-7.40625 M23.2969,-10.5 C23.9063,-10.5938 24.4063,-11.2969 24.4063,-11.9063 L24.4063,-17.7969 C24.4063,-18.5938 23.7969,-19.2031 23,-19.2031 L22.7969,-19.2031 L19.5,-18.5 L19.5,-33.4063 L16.7031,-33.4063 L16.7031,-17.9063 L7.79688,-16.0938 L7.79688,-30.2031 L5,-30.2031 L5,-15.5 L1.09375,-14.7031 C0.5,-14.5938 0,-13.9063 0,-13.2969 L0,-7.5 C0,-6.70313 0.59375,-6.09375 1.40625,-6.09375 L1.70313,-6.09375 L5,-6.79688 L5,9.70313 L1.09375,10.5 C0.5,10.5938 0,11.2969 0,11.9063 L0,17.7031 C0,18.5 0.59375,19.0938 1.40625,19.0938 L1.70313,19.0938 L5,18.4063 L5,33.2969 L7.79688,33.2969 L7.79688,17.7969 L16.7031,16 L16.7031,30.1094 L19.5,30.1094 L19.5,15.4063 L23.2969,14.7031 C23.9063,14.5938 24.4063,13.9063 24.4063,13.2969 L24.4063,7.40625 C24.4063,6.59375 23.7969,6 23,6 L22.7969,6 L19.5,6.70313 L19.5,-9.79688 L23.2969,-10.5 "/>
<path class="KeySig" transform="matrix(0.9936,0,0,0.9936,2700.73,1727.44)" d="M7.79688,-7.40625 L16.7031,-9.20313 L16.7031,7.29688 L7.79688,9.20313 L7.79688,-7.40625 M23.2969,-10.5 C23.9063,-10.5938 24.4063,-11.2969 24.4063,-11.9063 L24.4063,-17.7969 C24.4063,-18.5938 23.7969,-19.2031 23,-19.2031 L22.7969,-19.2031 L19.5,-18.5 L19.5,-33.4063 L16.7031,-33.4063 L16.7031,-17.9063 L7.79688,-16.0938 L7.79688,-30.2031 L5,-30.2031 L5,-15.5 L1.09375,-14.7031 C0.5,-14.5938 0,-13.9063 0,-13.2969 L0,-7.5 C0,-6.70313 0.59375,-6.09375 1.40625,-6.09375 L1.70313,-6.09375 L5,-6.79688 L5,9.70313 L1.09375,10.5 C0.5,10.5938 0,11.2969 0,11.9063 L0,17.7031 C0,18.5 0.59375,19.0938 1.40625,19.0938 L1.70313,19.0938 L5,18.4063 L5,33.2969 L7.79688,33.2969 L7.79688,17.7969 L16.7031,16 L16.7031,30.1094 L19.5,30.1094 L19.5,15.4063 L23.2969,14.7031 C23.9063,14.5938 24.4063,13.9063 24.4063,13.2969 L24.4063,7.40625 C24.4063,6.59375 23.7969,6 23,6 L22.7969,6 L19.5,6.70313 L19.5,-9.79688 L23.2969,-10.5 "/>
<path class="KeySig" transform="matrix(0.9936,0,0,0.9936,2727.93,1677.76)" d="M7.79688,-7.40625 L16.7031,-9.20313 L16.7031,7.29688 L7.79688,9.20313 L7.79688,-7.40625 M23.2969,-10.5 C23.9063,-10.5938 24.4063,-11.2969 24.4063,-11.9063 L24.4063,-17.7969 C24.4063,-18.5938 23.7969,-19.2031 23,-19.2031 L22.7969,-19.2031 L19.5,-18.5 L19.5,-33.4063 L16.7031,-33.4063 L16.7031,-17.9063 L7.79688,-16.0938 L7.79688,-30.2031 L5,-30.2031 L5,-15.5 L1.09375,-14.7031 C0.5,-14.5938 0,-13.9063 0,-13.2969 L0,-7.5 C0,-6.70313 0.59375,-6.09375 1.40625,-6.09375 L1.70313,-6.09375 L5,-6.79688 L5,9.70313 L1.09375,10.5 C0.5,10.5938 0,11.2969 0,11.9063 L0,17.7031 C0,18.5 0.59375,19.0938 1.40625,19.0938 L1.70313,19.0938 L5,18.4063 L5,33.2969 L7.79688,33.2969 L7.79688,17.7969 L16.7031,16 L16.7031,30.1094 L19.5,30.1094 L19.5,15.4063 L23.2969,14.7031 C23.9063,14.5938 24.4063,13.9063 24.4063,13.2969 L24.4063,7.40625 C24.4063,6.59375 23.7969,6 23,6 L22.7969,6 L19.5,6.70313 L19.5,-9.79688 L23.2969,-10.5 "/>
<path class="Rest" transform="matrix(0.9936,0,0,0.9936,827.069,740.053)" d="M1.40625,-0.5 C0.59375,-0.5 0,0.09375 0,0.90625 L0,11.7031 C0,12.5 0.59375,13.0938 1.40625,13.0938 L31.1094,13.0938 C31.9063,13.0938 32.5,12.5 32.5,11.7031 L32.5,0.90625 C32.5,0.09375 31.9063,-0.5 31.1094,-0.5 L1.40625,-0.5 "/>
<path class="Rest" transform="matrix(0.9936,0,0,0.9936,1692.18,1690.18)" d="M1.40625,-0.5 C0.59375,-0.5 0,0.09375 0,0.90625 L0,11.7031 C0,12.5 0.59375,13.0938 1.40625,13.0938 L31.1094,13.0938 C31.9063,13.0938 32.5,12.5 32.5,11.7031 L32.5,0.90625 C32.5,0.09375 31.9063,-0.5 31.1094,-0.5 L1.40625,-0.5 "/>
<path class="Rest" transform="matrix(0.9936,0,0,0.9936,2191.9,740.053)" d="M1.40625,-0.5 C0.59375,-0.5 0,0.09375 0,0.90625 L0,11.7031 C0,12.5 0.59375,13.0938 1.40625,13.0938 L31.1094,13.0938 C31.9063,13.0938 32.5,12.5 32.5,11.7031 L32.5,0.90625 C32.5,0.09375 31.9063,-0.5 31.1094,-0.5 L1.40625,-0.5 "/>
<path class="Rest" transform="matrix(0.9936,0,0,0.9936,2126.27,1690.18)" d="M1.40625,-0.5 C0.59375,-0.5 0,0.09375 0,0.90625 L0,11.7031 C0,12.5 0.59375,13.0938 1.40625,13.0938 L31.1094,13.0938 C31.9063,13.0938 32.5,12.5 32.5,11.7031 L32.5,0.90625 C32.5,0.09375 31.9063,-0.5 31.1094,-0.5 L1.40625,-0.5 "/>
<path class="Rest" transform="matrix(0.9936,0,0,0.9936,463.306,740.053)" d="M1.40625,-0.5 C0.59375,-0.5 0,0.09375 0,0.90625 L0,11.7031 C0,12.5 0.59375,13.0938 1.40625,13.0938 L31.1094,13.0938 C31.9063,13.0938 32.5,12.5 32.5,11.7031 L32.5,0.90625 C32.5,0.09375 31.9063,-0.5 31.1094,-0.5 L1.40625,-0.5 "/>
<path class="Rest" transform="matrix(0.9936,0,0,0.9936,2461.46,1690.18)" d="M1.40625,-0.5 C0.59375,-0.5 0,0.09375 0,0.90625 L0,11.7031 C0,12.5 0.59375,13.0938 1.40625,13.0938 L31.1094,13.0938 C31.9063,13.0938 32.5,12.5 32.5,11.7031 L32.5,0.90625 C32.5,0.09375 31.9063,-0.5 31.1094,-0.5 L1.40625,-0.5 "/>
<path class="Rest" transform="matrix(0.9936,0,0,0.9936,1119,1690.18)" d="M1.40625,-0.5 C0.59375,-0.5 0,0.09375 0,0.90625 L0,11.7031 C0,12.5 0.59375,13.0938 1.40625,13.0938 L31.1094,13.0938 C31.9063,13.0938 32.5,12.5 32.5,11.7031 L32.5,0.90625 C32.5,0.09375 31.9063,-0.5 31.1094,-0.5 L1.40625,-0.5 "/>
<path class="Rest" transform="matrix(0.9936,0,0,0.9936,1551.56,740.053)" d="M1.40625,-0.5 C0.59375,-0.5 0,0.09375 0,0.90625 L0,11.7031 C0,12.5 0.59375,13.0938 1.40625,13.0938 L31.1094,13.0938 C31.9063,13.0938 32.5,12.5 32.5,11.7031 L32.5,0.90625 C32.5,0.09375 31.9063,-0.5 31.1094,-0.5 L1.40625,-0.5 "/>
<path class="Rest" transform="matrix(0.9936,0,0,0.9936,1864.94,740.053)" d="M1.40625,-0.5 C0.59375,-0.5 0,0.09375 0,0.90625 L0,11.7031 C0,12.5 0.59375,13.0938 1.40625,13.0938 L31.1094,13.0938 C31.9063,13.0938 32.5,12.5 32.5,11.7031 L32.5,0.90625 C32.5,0.09375 31.9063,-0.5 31.1094,-0.5 L1.40625,-0.5 "/>
<path class="Rest" transform="matrix(0.9936,0,0,0.9936,547.799,1690.18)" d="M1.40625,-0.5 C0.59375,-0.5 0,0.09375 0,0.90625 L0,11.7031 C0,12.5 0.59375,13.0938 1.40625,13.0938 L31.1094,13.0938 C31.9063,13.0938 32.5,12.5 32.5,11.7031 L32.5,0.90625 C32.5,0.09375 31.9063,-0.5 31.1094,-0.5 L1.40625,-0.5 "/>
<path class="Rest" transform="matrix(0.9936,0,0,0.9936,1199.99,740.053)" d="M1.40625,-0.5 C0.59375,-0.5 0,0.09375 0,0.90625 L0,11.7031 C0,12.5 0.59375,13.0938 1.40625,13.0938 L31.1094,13.0938 C31.9063,13.0938 32.5,12.5 32.5,11.7031 L32.5,0.90625 C32.5,0.09375 31.9063,-0.5 31.1094,-0.5 L1.40625,-0.5 "/>
<path class="Rest" transform="matrix(0.9936,0,0,0.9936,2557.05,740.053)" d="M1.40625,-0.5 C0.59375,-0.5 0,0.09375 0,0.90625 L0,11.7031 C0,12.5 0.59375,13.0938 1.40625,13.0938 L31.1094,13.0938 C31.9063,13.0938 32.5,12.5 32.5,11.7031 L32.5,0.90625 C32.5,0.09375 31.9063,-0.5 31.1094,-0.5 L1.40625,-0.5 "/>
<path class="MeasureRepeat" transform="matrix(0.9936,0,0,0.9936,2453.71,1454.16)" d="M12.7031,-12.5 C12.7031,-16 9.79688,-18.7969 6.40625,-18.7969 C2.90625,-18.7969 0.09375,-16 0.09375,-12.5 C0.09375,-9 2.90625,-6.20313 6.40625,-6.20313 C9.79688,-6.20313 12.7031,-9 12.7031,-12.5 M48.1094,-25 L35.5,-25 L0,25 L12.5938,25 L48.1094,-25 M48.1094,12.5938 C48.1094,9.09375 45.2031,6.29688 41.7969,6.29688 C38.2969,6.29688 35.5,9.09375 35.5,12.5938 C35.5,16.0938 38.2969,18.9063 41.7969,18.9063 C45.2031,18.9063 48.1094,16.0938 48.1094,12.5938"/>
<path class="Articulation" transform="matrix(0.9936,0,0,0.9936,1656.74,564.426)" d="M1.09375,6.70313 C1.90625,7.5 2.90625,7.79688 3.90625,7.79688 C4.90625,7.79688 5.90625,7.5 6.70313,6.70313 C8.20313,5.09375 8.20313,2.70313 6.70313,1.20313 C5.90625,0.40625 4.90625,0 3.90625,0 C2.90625,0 1.90625,0.40625 1.09375,1.20313 C-0.40625,2.70313 -0.40625,5.09375 1.09375,6.70313"/>
<path class="Articulation" transform="matrix(0.9936,0,0,0.9936,733.386,1514.56)" d="M1.09375,6.70313 C1.90625,7.5 2.90625,7.79688 3.90625,7.79688 C4.90625,7.79688 5.90625,7.5 6.70313,6.70313 C8.20313,5.09375 8.20313,2.70313 6.70313,1.20313 C5.90625,0.40625 4.90625,0 3.90625,0 C2.90625,0 1.90625,0.40625 1.09375,1.20313 C-0.40625,2.70313 -0.40625,5.09375 1.09375,6.70313"/>
<path class="Beam" fill-rule="evenodd" d="M1154.2,1367.26 L1366.81,1367.26 L1366.81,1379.68 L1154.2,1379.68 L1154.2,1367.26 "/>
<path class="Beam" fill-rule="evenodd" d="M1295.96,435.738 L1365.81,429.528 L1365.81,441.997 L1295.96,448.207 L1295.96,435.738 "/>
<path class="Beam" fill-rule="evenodd" d="M1295.96,454.368 L1365.81,448.158 L1365.81,460.627 L1295.96,466.837 L1295.96,454.368 "/>
<path class="Beam" fill-rule="evenodd" d="M2301.07,448.119 L2344.52,454.329 L2344.52,466.876 L2301.07,460.666 L2301.07,448.119 "/>
<path class="Beam" fill-rule="evenodd" d="M2301.07,466.749 L2344.52,472.959 L2344.52,485.506 L2301.07,479.296 L2301.07,466.749 "/>
<path class="Beam" fill-rule="evenodd" d="M1504.92,1379.66 L1577.44,1385.87 L1577.44,1398.34 L1504.92,1392.13 L1504.92,1379.66 "/>
<path class="Beam" fill-rule="evenodd" d="M1504.92,1398.29 L1577.44,1404.5 L1577.44,1416.97 L1504.92,1410.76 L1504.92,1398.29 "/>
<path class="Beam" fill-rule="evenodd" d="M2653.02,435.738 L2722.87,429.528 L2722.87,441.997 L2653.02,448.207 L2653.02,435.738 "/>
<path class="Beam" fill-rule="evenodd" d="M2653.02,454.368 L2722.87,448.158 L2722.87,460.627 L2653.02,466.837 L2653.02,454.368 "/>
<path class="Beam" fill-rule="evenodd" d="M399.178,448.119 L442.632,454.329 L442.632,466.876 L399.178,460.666 L399.178,448.119 "/>
<path class="Beam" fill-rule="evenodd" d="M399.178,466.749 L442.632,472.959 L442.632,485.506 L399.178,479.296 L399.178,466.749 "/>
<path class="Beam" fill-rule="evenodd" d="M944.005,448.119 L987.46,454.329 L987.46,466.876 L944.005,460.666 L944.005,448.119 "/>
<path class="Beam" fill-rule="evenodd" d="M944.005,466.749 L987.46,472.959 L987.46,485.506 L944.005,479.296 L944.005,466.749 "/>
<path class="StaffText" d="M713.691,315.263 C713.941,315.263 714.191,315.373 714.332,315.763 L714.379,316.076 C714.691,317.169 715.285,319.529 717.332,319.529 C718.988,319.529 720.082,318.576 720.082,316.826 C720.082,313.466 717.441,312.419 714.379,312.419 C711.582,312.419 708.441,315.873 708.441,319.826 C708.441,320.779 708.629,321.779 709.082,322.779 C710.379,325.716 716.191,329.279 716.488,329.373 C716.629,329.466 716.738,329.576 716.738,329.716 C716.738,329.873 716.629,330.076 716.488,330.373 C716.191,330.919 710.441,341.279 710.441,341.279 C710.379,341.419 710.332,341.623 710.332,341.779 C710.332,342.169 710.535,342.576 710.879,342.779 C711.082,342.919 711.238,342.966 711.441,342.966 C711.832,342.966 712.238,342.716 712.441,342.373 C712.441,342.373 718.629,331.169 718.785,330.919 C718.785,330.966 719.082,330.716 719.238,330.716 C719.832,330.826 727.832,333.169 727.832,336.966 C727.832,338.576 726.879,339.576 725.535,339.826 L725.379,339.826 C724.582,339.826 723.879,339.279 723.879,338.029 L723.879,337.576 C723.879,336.076 722.879,334.966 721.785,334.966 C721.582,334.966 721.441,334.966 721.285,335.029 C719.785,335.373 718.441,336.029 718.441,337.623 C718.441,337.779 718.441,337.966 718.488,338.169 C718.785,339.873 720.582,342.169 723.285,342.169 C727.082,342.169 730.285,338.669 730.285,334.919 C730.285,334.576 730.238,334.169 730.191,333.779 C729.582,329.373 723.285,325.779 722.785,325.576 C722.332,325.279 722.129,325.123 722.129,324.919 C722.129,324.826 722.191,324.779 722.191,324.669 C722.379,324.373 728.582,313.169 728.582,313.169 C728.738,312.966 728.785,312.826 728.785,312.623 C728.785,312.216 728.535,311.826 728.191,311.623 C727.988,311.576 727.785,311.513 727.629,311.513 C727.238,311.513 726.832,311.716 726.629,312.076 C726.629,312.076 720.285,323.576 720.035,323.919 C719.941,324.123 719.832,324.216 719.691,324.216 C719.582,324.216 719.441,324.169 719.285,324.123 C718.941,323.966 712.879,321.669 711.832,319.873 C711.582,319.419 711.285,318.576 711.285,317.779 C711.285,316.669 711.785,315.576 713.441,315.263 L713.691,315.263 M724.879,323.216 C724.879,324.466 725.941,325.529 727.191,325.529 C728.441,325.529 729.441,324.466 729.441,323.216 C729.441,321.966 728.441,320.966 727.191,320.966 C725.941,320.966 724.879,321.966 724.879,323.216 M713.879,331.326 C713.879,330.076 712.879,329.029 711.582,329.029 C710.379,329.029 709.332,330.076 709.332,331.326 C709.332,332.576 710.379,333.576 711.582,333.576 C712.879,333.576 713.879,332.576 713.879,331.326"/>
<path class="Harmony" d="M399.508,356.183 L369.461,356.183 L369.461,358.543 L370.352,358.543 C373.211,358.589 374.164,358.746 374.555,359.246 C374.852,359.683 374.852,359.793 374.852,362.339 L374.852,386.136 C374.852,388.699 374.852,388.793 374.555,389.246 C374.164,389.746 373.211,389.949 370.352,389.949 L369.461,389.949 L369.461,392.293 L400.164,392.293 L401.164,378.949 L398.961,378.949 C397.055,387.839 395.008,389.746 387.352,389.949 L384.055,389.949 C381.055,389.839 380.305,389.339 380.461,387.543 L380.461,374.793 L381.461,374.793 C386.602,374.589 388.461,376.449 388.664,381.996 L391.008,381.996 L391.008,365.589 L388.664,365.589 C388.352,370.496 386.414,372.449 381.664,372.449 L380.461,372.449 L380.461,361.043 C380.414,358.933 380.914,358.589 383.602,358.543 L386.211,358.543 C394.414,358.496 396.461,360.293 398.055,368.949 L400.211,368.949 L399.508,356.183 "/>
<path class="Harmony" d="M1584.54,356.183 L1554.79,356.183 L1554.79,358.543 L1555.68,358.543 C1558.54,358.589 1559.49,358.746 1559.88,359.246 C1560.18,359.683 1560.18,359.793 1560.18,362.339 L1560.18,386.136 C1560.18,388.699 1560.18,388.793 1559.88,389.246 C1559.49,389.746 1558.54,389.949 1555.68,389.949 L1554.79,389.949 L1554.79,392.293 L1571.93,392.293 L1571.93,389.949 L1570.29,389.949 C1567.43,389.949 1566.49,389.746 1566.09,389.246 C1565.79,388.793 1565.79,388.636 1565.79,386.136 L1565.79,374.793 L1566.79,374.793 C1571.93,374.589 1573.79,376.449 1573.99,381.996 L1576.34,381.996 L1576.34,365.589 L1573.99,365.589 C1573.68,370.496 1571.74,372.386 1566.99,372.449 L1565.79,372.449 L1565.79,361.043 C1565.74,358.933 1566.24,358.589 1568.93,358.543 L1571.24,358.543 C1579.45,358.496 1581.49,360.339 1583.04,368.949 L1585.24,368.949 L1584.54,356.183 "/>
<path class="Harmony" d="M1466.73,355.839 L1464.84,355.839 L1462.88,358.839 C1459.63,356.293 1457.43,355.433 1453.77,355.433 C1449.82,355.433 1446.73,356.543 1443.57,359.089 C1438.63,363.089 1436.32,368.136 1436.32,374.886 C1436.32,379.996 1437.77,384.246 1440.73,387.496 C1443.82,390.996 1448.43,393.043 1453.23,393.043 C1457.43,393.043 1460.38,391.746 1463.63,388.496 L1465.48,392.996 L1467.59,392.996 L1467.59,381.996 C1467.59,379.449 1467.59,379.339 1467.88,378.886 C1468.34,378.339 1469.23,378.199 1472.09,378.199 L1472.84,378.199 L1472.84,375.839 L1456.93,375.839 L1456.93,378.199 L1457.88,378.199 C1462.09,378.199 1462.43,378.449 1462.43,381.246 C1462.43,383.386 1462.09,385.339 1461.43,386.543 C1460.18,388.996 1456.98,390.699 1453.73,390.699 C1450.48,390.699 1447.27,389.043 1445.57,386.543 C1443.73,383.746 1442.93,380.246 1442.93,374.886 C1442.93,363.746 1446.63,357.793 1453.57,357.793 C1459.27,357.793 1463.23,361.886 1465.27,369.886 L1467.43,369.886 L1466.73,355.839 "/>
<path class="Harmony" d="M2448.14,356.183 L2418.39,356.183 L2418.39,358.543 L2419.28,358.543 C2422.14,358.589 2423.1,358.746 2423.49,359.246 C2423.78,359.683 2423.78,359.793 2423.78,362.339 L2423.78,386.136 C2423.78,388.699 2423.78,388.793 2423.49,389.246 C2423.1,389.746 2422.14,389.949 2419.28,389.949 L2418.39,389.949 L2418.39,392.293 L2435.53,392.293 L2435.53,389.949 L2433.89,389.949 C2431.03,389.949 2430.1,389.746 2429.69,389.246 C2429.39,388.793 2429.39,388.636 2429.39,386.136 L2429.39,374.793 L2430.39,374.793 C2435.53,374.589 2437.39,376.449 2437.6,381.996 L2439.94,381.996 L2439.94,365.589 L2437.6,365.589 C2437.28,370.496 2435.35,372.386 2430.6,372.449 L2429.39,372.449 L2429.39,361.043 C2429.35,358.933 2429.85,358.589 2432.53,358.543 L2434.85,358.543 C2443.05,358.496 2445.1,360.339 2446.64,368.949 L2448.85,368.949 L2448.14,356.183 "/>
<path class="Harmony" d="M1793.51,356.183 L1763.47,356.183 L1763.47,358.543 L1764.36,358.543 C1767.22,358.589 1768.17,358.746 1768.56,359.246 C1768.86,359.683 1768.86,359.793 1768.86,362.339 L1768.86,386.136 C1768.86,388.699 1768.86,388.793 1768.56,389.246 C1768.17,389.746 1767.22,389.949 1764.36,389.949 L1763.47,389.949 L1763.47,392.293 L1794.17,392.293 L1795.17,378.949 L1792.97,378.949 C1791.06,387.839 1789.01,389.746 1781.36,389.949 L1778.06,389.949 C1775.06,389.839 1774.31,389.339 1774.47,387.543 L1774.47,374.793 L1775.47,374.793 C1780.61,374.589 1782.47,376.449 1782.67,381.996 L1785.01,381.996 L1785.01,365.589 L1782.67,365.589 C1782.36,370.496 1780.42,372.449 1775.67,372.449 L1774.47,372.449 L1774.47,361.043 C1774.42,358.933 1774.92,358.589 1777.61,358.543 L1780.22,358.543 C1788.42,358.496 1790.47,360.293 1792.06,368.949 L1794.22,368.949 L1793.51,356.183 "/>
<path class="Harmony" d="M391.904,1305.97 L390.013,1305.97 L388.06,1308.97 C384.81,1306.42 382.607,1305.56 378.95,1305.56 C374.997,1305.56 371.904,1306.67 368.747,1309.22 C363.81,1313.22 361.497,1318.27 361.497,1325.02 C361.497,1330.13 362.95,1334.38 365.904,1337.63 C368.997,1341.13 373.607,1343.17 378.404,1343.17 C382.607,1343.17 385.56,1341.88 388.81,1338.63 L390.654,1343.13 L392.763,1343.13 L392.763,1332.13 C392.763,1329.58 392.763,1329.47 393.06,1329.02 C393.513,1328.47 394.404,1328.33 397.263,1328.33 L398.013,1328.33 L398.013,1325.97 L382.107,1325.97 L382.107,1328.33 L383.06,1328.33 C387.263,1328.33 387.607,1328.58 387.607,1331.38 C387.607,1333.52 387.263,1335.47 386.607,1336.67 C385.357,1339.13 382.154,1340.83 378.904,1340.83 C375.654,1340.83 372.45,1339.17 370.747,1336.67 C368.904,1333.88 368.107,1330.38 368.107,1325.02 C368.107,1313.88 371.81,1307.92 378.747,1307.92 C384.45,1307.92 388.404,1312.02 390.45,1320.02 L392.607,1320.02 L391.904,1305.97 "/>
<path class="Harmony" d="M1091.08,356.183 L1061.33,356.183 L1061.33,358.543 L1062.22,358.543 C1065.08,358.589 1066.04,358.746 1066.43,359.246 C1066.72,359.683 1066.72,359.793 1066.72,362.339 L1066.72,386.136 C1066.72,388.699 1066.72,388.793 1066.43,389.246 C1066.04,389.746 1065.08,389.949 1062.22,389.949 L1061.33,389.949 L1061.33,392.293 L1078.47,392.293 L1078.47,389.949 L1076.83,389.949 C1073.97,389.949 1073.04,389.746 1072.63,389.246 C1072.33,388.793 1072.33,388.636 1072.33,386.136 L1072.33,374.793 L1073.33,374.793 C1078.47,374.589 1080.33,376.449 1080.54,381.996 L1082.88,381.996 L1082.88,365.589 L1080.54,365.589 C1080.22,370.496 1078.29,372.386 1073.54,372.449 L1072.33,372.449 L1072.33,361.043 C1072.29,358.933 1072.79,358.589 1075.47,358.543 L1077.79,358.543 C1085.99,358.496 1088.04,360.339 1089.58,368.949 L1091.79,368.949 L1091.08,356.183 "/>
<path class="Harmony" d="M594.388,1306.31 L564.638,1306.31 L564.638,1308.67 L565.529,1308.67 C568.388,1308.72 569.341,1308.88 569.732,1309.38 C570.029,1309.81 570.029,1309.92 570.029,1312.47 L570.029,1336.27 C570.029,1338.83 570.029,1338.92 569.732,1339.38 C569.341,1339.88 568.388,1340.08 565.529,1340.08 L564.638,1340.08 L564.638,1342.42 L581.779,1342.42 L581.779,1340.08 L580.138,1340.08 C577.279,1340.08 576.341,1339.88 575.935,1339.38 C575.638,1338.92 575.638,1338.77 575.638,1336.27 L575.638,1324.92 L576.638,1324.92 C581.779,1324.72 583.638,1326.58 583.841,1332.13 L586.185,1332.13 L586.185,1315.72 L583.841,1315.72 C583.529,1320.63 581.591,1322.52 576.841,1322.58 L575.638,1322.58 L575.638,1311.17 C575.591,1309.06 576.091,1308.72 578.779,1308.67 L581.091,1308.67 C589.295,1308.63 591.341,1310.47 592.888,1319.08 L595.091,1319.08 L594.388,1306.31 "/>
<path class="Harmony" d="M1492.15,1305.63 L1490.04,1305.63 L1478.54,1334.77 C1477.2,1338.67 1475.9,1339.88 1473.04,1340.08 L1472.84,1340.08 L1472.84,1342.42 L1486.09,1342.42 L1486.09,1340.08 L1485.09,1340.08 C1482.4,1340.08 1481.04,1339.13 1481.04,1337.22 C1481.04,1336.58 1481.2,1335.97 1481.5,1335.13 L1483.15,1330.72 L1496.4,1330.72 L1499.11,1337.42 C1499.4,1338.22 1499.5,1338.52 1499.5,1338.77 C1499.5,1339.58 1498.25,1340.08 1496.4,1340.08 L1494.29,1340.08 L1494.29,1342.42 L1509.79,1342.42 L1509.79,1340.08 L1509.11,1340.08 C1506.5,1340.02 1506.04,1339.72 1504.9,1336.88 L1492.15,1305.63 M1489.7,1313.81 L1495.34,1328.02 L1484.15,1328.02 L1489.7,1313.81 "/>
<path class="Harmony" d="M2095.48,356.183 L2065.44,356.183 L2065.44,358.543 L2066.33,358.543 C2069.19,358.589 2070.14,358.746 2070.53,359.246 C2070.83,359.683 2070.83,359.793 2070.83,362.339 L2070.83,386.136 C2070.83,388.699 2070.83,388.793 2070.53,389.246 C2070.14,389.746 2069.19,389.949 2066.33,389.949 L2065.44,389.949 L2065.44,392.293 L2096.14,392.293 L2097.14,378.949 L2094.94,378.949 C2093.03,387.839 2090.98,389.746 2083.33,389.949 L2080.03,389.949 C2077.03,389.839 2076.28,389.339 2076.44,387.543 L2076.44,374.793 L2077.44,374.793 C2082.58,374.589 2084.44,376.449 2084.64,381.996 L2086.98,381.996 L2086.98,365.589 L2084.64,365.589 C2084.33,370.496 2082.39,372.449 2077.64,372.449 L2076.44,372.449 L2076.44,361.043 C2076.39,358.933 2076.89,358.589 2079.58,358.543 L2082.19,358.543 C2090.39,358.496 2092.44,360.293 2094.03,368.949 L2096.19,368.949 L2095.48,356.183 "/>
<path class="Harmony" d="M738.423,356.183 L708.376,356.183 L708.376,358.543 L709.267,358.543 C712.126,358.589 713.079,358.746 713.47,359.246 C713.767,359.683 713.767,359.793 713.767,362.339 L713.767,386.136 C713.767,388.699 713.767,388.793 713.47,389.246 C713.079,389.746 712.126,389.949 709.267,389.949 L708.376,389.949 L708.376,392.293 L739.079,392.293 L740.079,378.949 L737.876,378.949 C735.97,387.839 733.923,389.746 726.267,389.949 L722.97,389.949 C719.97,389.839 719.22,389.339 719.376,387.543 L719.376,374.793 L720.376,374.793 C725.517,374.589 727.376,376.449 727.579,381.996 L729.923,381.996 L729.923,365.589 L727.579,365.589 C727.267,370.496 725.329,372.449 720.579,372.449 L719.376,372.449 L719.376,361.043 C719.329,358.933 719.829,358.589 722.517,358.543 L725.126,358.543 C733.329,358.496 735.376,360.293 736.97,368.949 L739.126,368.949 L738.423,356.183 "/>
<path class="Harmony" d="M891.869,1306.31 L861.822,1306.31 L861.822,1308.67 L862.712,1308.67 C865.572,1308.72 866.525,1308.88 866.916,1309.38 C867.212,1309.81 867.212,1309.92 867.212,1312.47 L867.212,1336.27 C867.212,1338.83 867.212,1338.92 866.916,1339.38 C866.525,1339.88 865.572,1340.08 862.712,1340.08 L861.822,1340.08 L861.822,1342.42 L892.525,1342.42 L893.525,1329.08 L891.322,1329.08 C889.416,1337.97 887.369,1339.88 879.712,1340.08 L876.416,1340.08 C873.416,1339.97 872.666,1339.47 872.822,1337.67 L872.822,1324.92 L873.822,1324.92 C878.962,1324.72 880.822,1326.58 881.025,1332.13 L883.369,1332.13 L883.369,1315.72 L881.025,1315.72 C880.712,1320.63 878.775,1322.58 874.025,1322.58 L872.822,1322.58 L872.822,1311.17 C872.775,1309.06 873.275,1308.72 875.962,1308.67 L878.572,1308.67 C886.775,1308.63 888.822,1310.42 890.416,1319.08 L892.572,1319.08 L891.869,1306.31 "/>
<path class="VoltaSegment" d="M379.824,315.828 L379.215,318.578 C378.715,320.781 378.387,321.484 377.949,321.765 C377.403,322.156 377.293,322.156 373.824,322.203 L363.215,322.203 C365.137,320.546 366.574,319.515 368.715,318.078 C376.465,313.078 378.059,311.859 379.653,309.828 C381.528,307.359 382.621,304.437 382.621,301.859 C382.621,295.968 376.856,291.515 369.106,291.515 C361.621,291.515 355.84,296.359 355.84,302.624 C355.84,306.468 357.996,308.953 361.293,308.953 C364.153,308.953 365.965,307.14 365.965,304.281 C365.965,301.906 364.918,300.531 362.387,299.328 C361.778,299.046 361.512,298.718 361.512,298.281 C361.512,296.515 364.481,294.656 367.231,294.656 C371.074,294.656 373.278,297.015 373.278,301.093 C373.278,305.656 371.512,308.89 365.684,315.109 C359.528,321.656 357.387,324.124 354.637,328.093 L354.637,330.671 C356.059,330.515 356.668,330.453 357.496,330.453 L378.168,330.453 C379.215,330.453 379.871,330.515 381.528,330.671 L382.793,315.828 L379.824,315.828 M392.793,320.937 C389.934,320.937 387.621,323.249 387.621,326.109 C387.621,328.906 389.934,331.281 392.746,331.281 C395.653,331.281 397.965,328.968 397.965,326.109 C397.965,323.249 395.653,320.937 392.793,320.937"/>
<polyline class="VoltaSegment" fill="none" stroke="#000000" stroke-width="2.73" stroke-linejoin="miter" stroke-miterlimit="2" points="339.686,330.453 339.686,275.805 658.589,275.805" />
<path class="NoteDot" transform="matrix(0.9936,0,0,0.9936,1959.41,541.333)" d="M0,0 C0,2.79688 2.20313,5 5,5 C7.79688,5 10,2.79688 10,0 C10,-2.79688 7.79688,-5 5,-5 C2.20313,-5 0,-2.79688 0,0"/>
<path class="NoteDot" transform="matrix(0.9936,0,0,0.9936,2462,516.493)" d="M0,0 C0,2.79688 2.20313,5 5,5 C7.79688,5 10,2.79688 10,0 C10,-2.79688 7.79688,-5 5,-5 C2.20313,-5 0,-2.79688 0,0"/>
<path class="NoteDot" transform="matrix(0.9936,0,0,0.9936,2110.04,516.493)" d="M0,0 C0,2.79688 2.20313,5 5,5 C7.79688,5 10,2.79688 10,0 C10,-2.79688 7.79688,-5 5,-5 C2.20313,-5 0,-2.79688 0,0"/>
<path class="NoteDot" transform="matrix(0.9936,0,0,0.9936,1483.29,516.493)" d="M0,0 C0,2.79688 2.20313,5 5,5 C7.79688,5 10,2.79688 10,0 C10,-2.79688 7.79688,-5 5,-5 C2.20313,-5 0,-2.79688 0,0"/>
<path class="NoteDot" transform="matrix(0.9936,0,0,0.9936,2052.79,1466.62)" d="M0,0 C0,2.79688 2.20313,5 5,5 C7.79688,5 10,2.79688 10,0 C10,-2.79688 7.79688,-5 5,-5 C2.20313,-5 0,-2.79688 0,0"/>
<path class="NoteDot" transform="matrix(0.9936,0,0,0.9936,1817.49,1466.62)" d="M0,0 C0,2.79688 2.20313,5 5,5 C7.79688,5 10,2.79688 10,0 C10,-2.79688 7.79688,-5 5,-5 C2.20313,-5 0,-2.79688 0,0"/>
<path class="NoteDot" transform="matrix(0.9936,0,0,0.9936,408.462,1466.62)" d="M0,0 C0,2.79688 2.20313,5 5,5 C7.79688,5 10,2.79688 10,0 C10,-2.79688 7.79688,-5 5,-5 C2.20313,-5 0,-2.79688 0,0"/>
<path class="NoteDot" transform="matrix(0.9936,0,0,0.9936,586.811,541.333)" d="M0,0 C0,2.79688 2.20313,5 5,5 C7.79688,5 10,2.79688 10,0 C10,-2.79688 7.79688,-5 5,-5 C2.20313,-5 0,-2.79688 0,0"/>
<path class="NoteDot" transform="matrix(0.9936,0,0,0.9936,752.981,516.493)" d="M0,0 C0,2.79688 2.20313,5 5,5 C7.79688,5 10,2.79688 10,0 C10,-2.79688 7.79688,-5 5,-5 C2.20313,-5 0,-2.79688 0,0"/>
<path class="NoteDot" transform="matrix(0.9936,0,0,0.9936,1104.94,516.493)" d="M0,0 C0,2.79688 2.20313,5 5,5 C7.79688,5 10,2.79688 10,0 C10,-2.79688 7.79688,-5 5,-5 C2.20313,-5 0,-2.79688 0,0"/>
<path class="Page" d="M236.438,235.301 L235.891,237.801 C235.438,239.801 235.141,240.442 234.75,240.692 C234.25,241.051 234.141,241.051 231,241.098 L221.344,241.098 C223.094,239.598 224.391,238.645 226.344,237.348 C233.391,232.801 234.844,231.692 236.297,229.848 C238,227.598 239,224.942 239,222.598 C239,217.239 233.75,213.192 226.688,213.192 C219.891,213.192 214.641,217.598 214.641,223.301 C214.641,226.801 216.594,229.051 219.594,229.051 C222.188,229.051 223.844,227.395 223.844,224.801 C223.844,222.645 222.891,221.395 220.594,220.301 C220.047,220.051 219.797,219.739 219.797,219.348 C219.797,217.739 222.5,216.051 225,216.051 C228.5,216.051 230.5,218.192 230.5,221.895 C230.5,226.051 228.891,229.005 223.594,234.645 C218,240.598 216.047,242.848 213.547,246.442 L213.547,248.801 C214.844,248.645 215.391,248.598 216.141,248.598 L234.938,248.598 C235.891,248.598 236.5,248.645 238,248.801 L239.141,235.301 L236.438,235.301 "/>
<path class="Bracket" transform="matrix(3.6018,0,0,3.6018,181.506,814.573)" d="M0.90625,-50 C2.70313,-51.9063 6.20313,-55.7969 6.20313,-63 C6.20313,-72.1094 2.29688,-81.3125 2.29688,-87 C2.29688,-93.1094 5.79688,-98.8125 6,-99 C6,-99.1094 6,-99.1094 6,-99.2031 C6,-99.3125 6,-99.4063 5.90625,-99.5 C5.79688,-99.5 5.59375,-99.5 5.5,-99.3125 C5.40625,-99.2031 0,-93.8125 0,-85.6094 C0,-76.8125 3.5,-70.6094 3.5,-59.1094 C3.5,-56.9063 2.59375,-53.4063 0.09375,-50.2969 C0,-50.2969 0,-50.1094 0,-50 C-0.09375,-49.9063 0,-49.7969 0.09375,-49.7031 C2.59375,-46.6094 3.5,-43.1094 3.5,-40.9063 C3.5,-29.4063 0,-23.2031 0,-14.4063 C0,-6.29688 5.40625,-0.796875 5.5,-0.703125 C5.59375,-0.5 5.79688,-0.40625 5.90625,-0.5 C6,-0.59375 6.09375,-0.703125 6,-0.796875 C6,-0.796875 6,-0.90625 6,-1 C5.79688,-1.20313 2.29688,-6.90625 2.29688,-13 C2.29688,-18.7031 6.20313,-27.9063 6.20313,-37 C6.20313,-44.2969 2.70313,-48.1094 0.90625,-50"/>
<path class="Bracket" transform="matrix(3.6018,0,0,3.6018,181.506,1764.7)" d="M0.90625,-50 C2.70313,-51.9063 6.20313,-55.7969 6.20313,-63 C6.20313,-72.1094 2.29688,-81.3125 2.29688,-87 C2.29688,-93.1094 5.79688,-98.8125 6,-99 C6,-99.1094 6,-99.1094 6,-99.2031 C6,-99.3125 6,-99.4063 5.90625,-99.5 C5.79688,-99.5 5.59375,-99.5 5.5,-99.3125 C5.40625,-99.2031 0,-93.8125 0,-85.6094 C0,-76.8125 3.5,-70.6094 3.5,-59.1094 C3.5,-56.9063 2.59375,-53.4063 0.09375,-50.2969 C0,-50.2969 0,-50.1094 0,-50 C-0.09375,-49.9063 0,-49.7969 0.09375,-49.7031 C2.59375,-46.6094 3.5,-43.1094 3.5,-40.9063 C3.5,-29.4063 0,-23.2031 0,-14.4063 C0,-6.29688 5.40625,-0.796875 5.5,-0.703125 C5.59375,-0.5 5.79688,-0.40625 5.90625,-0.5 C6,-0.59375 6.09375,-0.703125 6,-0.796875 C6,-0.796875 6,-0.90625 6,-1 C5.79688,-1.20313 2.29688,-6.90625 2.29688,-13 C2.29688,-18.7031 6.20313,-27.9063 6.20313,-37 C6.20313,-44.2969 2.70313,-48.1094 0.90625,-50"/>
</svg>
